<?xml version="1.0" encoding="UTF-8" standalone="no"?>
<!DOCTYPE svg PUBLIC "-//W3C//DTD SVG 1.1//EN" "http://www.w3.org/Graphics/SVG/1.1/DTD/svg11.dtd">
<svg width="100%" height="100%" viewBox="0 0 485 258" version="1.1" xmlns="http://www.w3.org/2000/svg" xmlns:xlink="http://www.w3.org/1999/xlink" xml:space="preserve" xmlns:serif="http://www.serif.com/" style="fill-rule:evenodd;clip-rule:evenodd;stroke-linejoin:round;stroke-miterlimit:1.41421;">
    <g transform="matrix(0.75,0,0,0.75,0,0)">
        <g transform="matrix(0.569806,0.0456257,-0.0446457,0.557567,-123.091,-2266.82)">
            <g transform="matrix(1,0,0,1,1659.19,4373.8)">
                <path d="M0,-185.647C-6.154,-198.901 -17.24,-206.68 -30.414,-206.991C-39.099,-207.186 -49.443,-205.327 -59.512,-198.391C-64.341,-201.756 -70.3,-203.629 -76.897,-203.696C-89.252,-203.819 -101.728,-203.877 -114.014,-203.866C-126.221,-203.854 -136.453,-197.509 -141.378,-186.912C-142.033,-185.504 -142.633,-183.942 -143.185,-182.177C-148.72,-189.329 -156.057,-195.11 -165.09,-199.42C-176.001,-204.623 -187.73,-207.102 -199.931,-206.783C-211.286,-206.487 -221.311,-204.626 -229.732,-201.251C-234.996,-199.138 -240.155,-196.299 -245.151,-192.77C-253.303,-196.348 -260.959,-200.059 -268.062,-203.877C-268.126,-214.315 -268.244,-223.896 -268.415,-232.471L-268.429,-232.9C-268.847,-243.131 -270.112,-250.584 -272.433,-256.403C-277.091,-267.995 -288.022,-274.757 -300.958,-274.049C-312.227,-273.433 -324.192,-272.594 -334.896,-272.026C-368.192,-275.594 -364.892,-249.958 -364.892,-249.958C-365.192,-244.594 -367.192,-237.594 -367.679,-229.507C-369.633,-219.653 -372.438,-215.192 -373.644,-213.989C-374.795,-214.114 -378.879,-214.958 -386.533,-220.552C-385.118,-227.704 -383.115,-239.69 -383.358,-249.242C-383.178,-253.963 -383.281,-258.894 -383.669,-263.952C-385.923,-292.482 -397.328,-314.573 -417.574,-329.614C-437.14,-344.14 -463.552,-350.186 -496.083,-347.583C-528.766,-344.958 -553.62,-334.696 -569.955,-317.085C-574.866,-311.793 -578.944,-305.944 -582.15,-299.606C-583.869,-299.322 -585.593,-299.088 -587.322,-298.903C-592.137,-304.573 -597.718,-309.538 -604.008,-313.737C-624.239,-327.241 -650.834,-331.903 -683.077,-327.592C-715.458,-323.254 -739.648,-311.694 -754.979,-293.231C-755.344,-292.792 -755.704,-292.347 -756.06,-291.899C-759.329,-291.917 -763.512,-292.067 -768.544,-292.506C-768.55,-294.889 -768.668,-297.319 -768.937,-299.741C-768.949,-299.941 -768.963,-300.141 -768.978,-300.34C-768.503,-305.866 -768.953,-312.091 -770.338,-319.273C-775.713,-347.081 -794.406,-352.874 -802.314,-354.072C-816.577,-356.262 -837.03,-354.834 -864.845,-349.707C-872.802,-348.236 -884.951,-345.365 -899.985,-341.403C-928.589,-334.014 -949.745,-315.477 -961.162,-287.802C-967.321,-272.895 -972.95,-257.815 -974.157,-237.297L-974.174,-236.975C-974.503,-229.717 -975.886,-192.426 -970.74,-170.977C-970.032,-168.026 -969.272,-165.133 -968.462,-162.299C-978.423,-161.786 -990.056,-159.727 -1003.54,-156.106C-1010.17,-154.322 -1019.93,-150.905 -1032.57,-145.948C-1057.53,-136.35 -1073.58,-113.596 -1080.28,-78.329C-1080.82,-75.494 -1081.41,-72.584 -1082.01,-69.67C-1083.6,-61.823 -1085.25,-53.709 -1086.07,-46.358C-1087.11,-36.993 -1089.17,19.16 -1081.25,54.545C-1073.69,88.273 -1063.33,115.764 -1050.44,136.253L-1050.38,136.356C-1042.06,149.415 -1031.91,158.977 -1020.21,164.769C-1012.35,168.664 -1004.08,170.615 -995.484,170.615C-989.851,170.615 -984.075,169.777 -978.187,168.099C-951.136,160.4 -932.763,154.007 -920.309,147.951C-912.883,144.312 -904.125,137.628 -898.832,125.456C-892.164,133.374 -882.762,137.017 -872.946,135.487C-862.397,133.914 -855.405,132.684 -850.933,131.615C-846.17,130.472 -841.343,128.973 -836.583,127.156C-827.048,123.514 -820.07,116.565 -816.935,107.583C-815.544,103.595 -814.715,99.381 -814.458,94.998C-811.432,90.288 -805.315,85.214 -800.082,84.498C-798.668,84.305 -792.093,89.206 -792.093,89.206L-780.486,101.704C-765.904,114.208 -751.054,114.607 -740.824,112.54C-733.025,110.966 -723.726,107.305 -715.203,99.29C-710.765,100.615 -705.867,100.857 -700.807,99.902C-688.79,97.643 -676.574,95.421 -664.501,93.296C-660.654,92.621 -657.394,91.491 -654.635,90.093C-654.109,95.644 -653.614,100.799 -653.148,105.593C-652.134,115.591 -650.405,122.892 -647.701,128.581C-642.123,140.298 -630.683,146.273 -617.854,144.172C-607.096,142.415 -596.153,140.686 -585.334,139.035C-573.651,137.254 -564.714,129.588 -561.418,118.496C-560.354,114.896 -556.198,97.201 -556.192,86.928C-555.84,84.681 -555.603,82.214 -555.479,79.503C-553.735,79.489 -551.909,79.356 -550.001,79.091C-540.005,77.71 -526.525,72.779 -514.619,57.998C-514.127,67.996 -513.676,76.845 -513.258,84.683C-512.68,94.731 -511.263,102.11 -508.804,107.9C-503.742,119.826 -492.57,126.296 -479.65,124.775C-468.775,123.498 -457.699,122.257 -446.73,121.087C-434.948,119.832 -425.658,112.572 -421.879,101.667C-420.005,96.259 -418.054,83.128 -417.415,74.236C-416.439,71.013 -415.761,67.292 -415.357,62.905C-413.215,63.032 -410.943,62.997 -408.549,62.775C-401.672,62.138 -395.192,60.406 -389.071,56.949C-382.95,53.491 -376.843,48.158 -376.843,48.158C-373.063,44.641 -369.52,40.498 -366.258,35.781C-361.143,45.807 -351.638,52.231 -339.444,53.178L-338.489,53.23C-333.379,53.387 -327.587,53.261 -321.27,52.853C-314.646,52.423 -308.947,51.734 -303.858,50.748C-293.775,48.798 -285.656,43.166 -280.992,34.88C-279.975,33.07 -279.064,31.13 -278.274,29.082C-278.261,29.046 -278.247,29.009 -278.233,28.974C-277.564,28.469 -275.943,27.426 -272.681,26.204C-258.343,43.746 -239.265,52.601 -217.165,51.9C-192.021,51.099 -171.554,44.716 -156.332,32.928C-155.166,32.045 -154.062,31.152 -153.017,30.246C-148.133,38.191 -140.303,43.082 -131.164,43.8C-120.042,44.759 -112.973,45.191 -108.251,45.201L-108.016,45.201C-103.089,45.201 -98.016,44.881 -92.934,44.25C-82.708,42.982 -74.205,37.914 -68.986,29.97C-65.526,24.701 -63.19,18.689 -62.042,12.103L-61.94,11.464C-61.3,6.948 -60.578,0.787 -59.793,-6.879C-59.048,-9.147 -58.462,-11.494 -58.043,-13.891L-57.94,-14.54C-56.749,-22.941 -55.313,-36.698 -53.657,-55.563C-50.039,-53.532 -45.89,-52.13 -41.191,-52.025C-40.961,-52.02 -40.729,-52.017 -40.493,-52.017C-30.382,-52.018 -16.761,-56.967 -7.827,-79.827C-3.7,-90.387 0.266,-104.841 1.602,-114.194C1.962,-116.717 4.116,-134.711 4.741,-141.627C5.161,-146.259 5.258,-150.741 5.028,-154.971C5.625,-167.03 3.978,-177.075 0,-185.647" style="fill:rgb(29,68,23);fill-rule:nonzero;"/>
            </g>
            <g transform="matrix(1,0,0,1,826.476,4217.31)">
                <path d="M0,-96.165C-13.313,-93.8 -21.832,-88.105 -25.517,-79.188C-29.213,-70.266 -29.187,-57.199 -25.544,-39.994C-19.803,-12.902 -10.313,-0.623 3.058,-3.053C5.788,-3.549 7.579,-3.957 8.407,-4.284C6.677,-3.973 4.556,-7.304 2.017,-14.275C-0.523,-21.246 6.524,-29.309 3.524,-37.309C0.712,-44.807 -11.476,-69.309 -0.476,-83.309C7.524,-91.309 6.169,-57.743 12.686,-58.888C19.195,-60.031 23.747,-60.768 26.33,-61.124C28.909,-61.476 31.909,-61.635 35.321,-61.595C38.735,-61.551 41.435,-61.074 43.423,-60.174C48.046,-58.117 55.209,-62.079 56.239,-56.603C58.592,-44.11 61.921,-44.101 64.239,-31.603C66.714,-18.249 61.323,12.959 58.792,21.584C56.255,30.212 49.64,36.12 38.948,39.381C23.944,43.924 0.699,48.994 -30.685,55.102C-43.271,57.554 -54.536,57.337 -64.566,54.421C-74.603,51.507 -83.067,46.35 -89.991,38.916C-102.711,25.064 -112.043,6.034 -117.874,-18.269C-123.702,-42.562 -122.092,-77.624 -115.476,-100.309C-108.476,-124.309 -88.423,-123.262 -65.902,-129.069C-50.476,-133.136 -39.216,-135.758 -32.187,-137.058C-6.608,-141.773 12.007,-143.084 23.507,-141.318C31.327,-140.159 41.095,-153.719 43.239,-142.603C46.108,-127.721 38.976,-99.949 31.428,-98.681C29.022,-98.45 24.185,-98.165 16.907,-97.797C9.629,-97.424 3.994,-96.874 0,-96.165" style="fill:rgb(34,107,44);fill-rule:nonzero;"/>
            </g>
            <g transform="matrix(1,0,0,1,990.61,4145.87)">
                <path d="M0,55.493C8.551,54.356 11.395,44.168 8.475,24.882C7.14,16.101 5.224,9.461 2.726,4.955C0.23,0.454 -3.613,-1.46 -8.771,-0.772C-13.934,-0.082 -17.02,2.757 -18.022,7.724C-19.025,12.696 -18.822,19.563 -17.42,28.334C-14.334,47.596 -8.555,56.633 0,55.493M6.295,96.801C-47.05,103.958 -77.591,85.13 -86.11,38.462C-90.1,16.359 -88.785,-19.844 -76.895,-34.163C-65.02,-48.465 -42.873,-39.683 -15.557,-43.343C11.762,-46.995 33.523,-43.36 49.41,-32.755C65.311,-22.14 74.654,-5.625 77.588,16.642C83.664,63.694 59.643,89.786 6.295,96.801" style="fill:rgb(34,107,44);fill-rule:nonzero;"/>
            </g>
            <g transform="matrix(1,0,0,1,1171.37,4121.97)">
                <path d="M0,60.2C8.643,59.515 12.035,49.492 10.121,30.078C9.244,21.24 7.67,14.508 5.4,9.877C3.128,5.251 -0.619,3.137 -5.836,3.553C-11.053,3.97 -14.301,6.641 -15.568,11.55C-16.844,16.462 -16.992,23.331 -16.051,32.162C-13.975,51.559 -8.646,60.888 0,60.2M4.142,101.782C-49.785,106.122 -79.434,85.717 -85.518,38.665C-88.352,16.384 -86.343,-18.589 -73.652,-32.263C-60.978,-45.922 -38.009,-37.1 -10.401,-39.318C17.205,-41.527 38.855,-36.749 54.245,-25.322C69.645,-13.883 78.166,3.102 79.935,25.494C83.564,72.803 58.064,97.587 4.142,101.782" style="fill:rgb(34,107,44);fill-rule:nonzero;"/>
            </g>
            <g transform="matrix(1,0,0,1,687.023,4457.63)">
                <path d="M0,-130.276C-10.65,-127.464 -17.095,-120.27 -19.313,-108.77C-21.543,-97.265 -20.353,-80.29 -15.869,-57.839C-8.791,-22.492 -0.046,-6.284 10.528,-9.151C12.686,-9.737 14.095,-10.229 14.735,-10.638C13.37,-10.27 18.639,-15.512 15.977,-24.63C13.321,-33.748 16.642,-34.299 11.977,-43.63C6.977,-53.63 -3.023,-83.63 -0.023,-95.63C1.214,-100.576 4.792,-110.261 9.977,-111.63C15.16,-112.996 22.306,-83.808 24.366,-84.23C26.429,-84.646 28.845,-84.807 31.616,-84.705C34.386,-84.598 36.613,-83.942 38.297,-82.743C42.212,-80.006 44.808,-75.066 46.091,-67.928C49.02,-51.641 57.081,-35.922 59.977,-19.63C63.073,-2.221 61.289,11.179 59.977,22.37C58.658,33.567 51.346,42.649 43.054,46.713C31.417,52.371 13.229,58.538 -11.413,65.552C-21.291,68.366 -30.37,67.71 -38.719,63.572C-47.071,59.436 -54.393,52.421 -60.706,42.511C-72.316,24.047 -81.748,-1.019 -88.86,-32.766C-95.966,-64.504 -97.023,-101.63 -93.023,-128.63C-88.853,-156.778 -74.71,-167.798 -56.757,-174.67C-44.462,-179.492 -35.471,-182.621 -29.823,-184.141C-9.271,-189.66 5.844,-191.074 15.394,-188.605C21.887,-186.983 33.992,-198.642 34.692,-183.924C35.692,-162.924 31.411,-134.558 25.376,-133.014C23.435,-132.749 19.523,-132.448 13.631,-132.09C7.737,-131.728 3.19,-131.119 0,-130.276" style="fill:rgb(34,107,44);fill-rule:nonzero;"/>
            </g>
            <g transform="matrix(1,0,0,1,753,4483.47)">
                <path d="M0,-194.47C12,-201.47 25.475,-168.787 37.098,-171.47C41.153,-172.406 44.215,-171.418 46.279,-168.529C48.336,-165.632 49.881,-160.938 50.899,-154.445C51.532,-150.412 52.163,-146.381 52.792,-142.349C55.694,-167.593 64.76,-181.934 79.879,-185.21C84.917,-186.301 89.499,-184.157 93.602,-178.786C97.705,-173.414 103.576,-169.572 105,-159.47C106.426,-149.368 103.295,-135.118 101.877,-124.53C100.463,-113.934 97.242,-108.098 92.213,-107.001C89.871,-106.491 86.265,-108.072 81.366,-111.739C76.465,-115.4 72.711,-116.94 70.133,-116.361C67.551,-115.782 65.151,-113.382 62.955,-109.177C60.75,-104.964 61.21,-99.375 64,-91.47C76,-57.47 75,-50.47 75,-37.47C75,-33.571 71.26,-11.116 70.117,-7.839C68.97,-4.555 66.435,-2.164 62.51,-0.665C58.581,0.835 54.643,2.062 50.696,3.009C46.739,3.955 39.963,5.121 30.35,6.553C27.609,7 25.208,5.964 23.146,3.447C21.081,0.937 19.612,-2.192 18.746,-5.939C15.502,-20.267 11.333,-42.403 6.189,-72.343C1.042,-102.279 -2.294,-122.829 -3.746,-134.001C-5.202,-145.173 -8.573,-178.593 -7.85,-182.263C-7.132,-185.932 -6,-190.47 0,-194.47" style="fill:rgb(34,107,44);fill-rule:nonzero;"/>
            </g>
            <g transform="matrix(1,0,0,1,932.481,4328.71)">
                <path d="M0,73.377C5.102,72.394 7.492,69.988 7.17,66.132C6.55,58.657 5.543,48.838 4.137,36.678C3.588,31.95 1.434,29.939 -2.326,30.658C-6.086,31.377 -8.934,33.714 -10.855,37.655C-12.782,41.603 -13.325,46.948 -12.51,53.699C-11.695,60.451 -10.096,65.553 -7.725,69.003C-5.355,72.46 -2.783,73.914 0,73.377M-7.99,-50.328C31.557,-57.689 54.103,-36.981 59.09,10.753C61.34,31.017 68.268,44.611 69.904,61.534C71.54,78.456 72.072,83.409 72.519,89.293C72.965,95.184 68.074,111.005 66.882,113.846C65.688,116.691 63.018,118.471 58.875,119.199C46.672,121.346 34.492,123.562 22.332,125.848C18.66,126.539 15.998,125.725 14.328,123.397C12.66,121.07 11.475,117.329 10.772,112.166C10.747,111.944 10.672,111.556 10.553,111C10.432,110.452 10.344,109.95 10.293,109.496C4.423,126.27 -4.956,135.914 -17.953,138.537C-26.961,140.356 -35.17,137.497 -42.67,129.947C-50.168,122.399 -54.998,110.838 -57.108,95.221C-59.217,79.61 -58.481,60.293 -56.481,49.293C-47.758,1.314 -48.178,35.515 -42.481,32.293C-35.875,28.558 -28.553,26.183 -21.162,24.736C-13.777,23.291 -4.894,18.932 2.519,20.293C2.466,19.843 0.95,23.709 0.898,23.259C-0.417,12.001 -2.527,-7.887 -5.44,-12.4C-8.354,-16.908 -12.42,-18.675 -17.608,-17.673C-22.799,-16.673 -27.019,-14.982 -30.258,-12.615C-33.502,-10.247 -36.089,-8.112 -37.443,-5.829C-40.481,-0.707 -43.583,-0.092 -45.481,0.293C-47.378,0.678 -50.337,0.351 -52.266,-2.717C-54.196,-5.783 -55.639,-7.855 -56.591,-14.934C-57.544,-22.012 -58.481,-32.707 -57.481,-37.707C-56.481,-42.707 -53.667,-52.135 -51.027,-55.436C-41.847,-66.979 -27.478,-46.676 -7.99,-50.328" style="fill:rgb(34,107,44);fill-rule:nonzero;"/>
            </g>
            <g transform="matrix(1,0,0,1,1085.27,4352.31)">
                <path d="M0,27.768C6.954,26.776 9.716,15.268 8.236,-6.787C6.753,-28.838 2.426,-39.379 -4.685,-38.377C-7.456,-37.985 -9.825,-35.874 -11.788,-32.051C-13.753,-28.224 -14.491,-23.146 -14.018,-16.82C-13.368,-8.116 -12.724,0.588 -12.083,9.292C-11.618,15.624 -10.163,20.381 -7.724,23.568C-5.284,26.759 -2.718,28.156 0,27.768M-63.552,-117.609C-52.335,-119.271 -44.868,-87.84 -33.622,-89.389C-30.692,-89.823 -27.988,-88.557 -25.534,-85.602C-23.075,-82.643 -21.558,-78.122 -20.961,-72.037C-16.831,-80.633 -11.519,-87.449 -5.023,-92.465C1.471,-97.48 8.051,-100.428 14.684,-101.31C26.228,-102.842 36.198,-96.517 44.407,-82.381C52.623,-68.24 57.489,-45.871 59.083,-15.309C59.991,2.127 59.497,17.164 57.653,29.811C55.806,42.462 52.95,52.332 49.083,59.438C41.641,72.477 32.433,79.737 21.334,81.27C10.239,82.806 6.118,75.052 -1.175,61.952C-2.106,60.492 -2.751,60.125 -3.11,60.864C-3.472,61.603 -3.599,62.65 -3.504,64.006C-2.36,80.057 -2.552,90.285 -2.552,109.391C-2.552,116.391 -5.913,131.706 -6.937,135.174C-7.967,138.638 -10.412,140.664 -14.282,141.254C-25.212,142.922 -36.123,144.646 -47.019,146.426C-50.761,147.039 -53.436,145.648 -55.052,142.253C-56.667,138.855 -57.858,133.443 -58.612,126.01C-60.696,104.591 -63.216,77.18 -66.218,43.764C-69.417,6.831 -72.692,-30.099 -76.044,-67.024C-76.469,-71.538 -78.519,-93.199 -76.552,-96.609C-74.59,-100.017 -65.866,-117.243 -63.552,-117.609" style="fill:rgb(34,107,44);fill-rule:nonzero;"/>
            </g>
            <g transform="matrix(1,0,0,1,1229.89,4342.49)">
                <path d="M0,20.268C7.039,19.586 10.32,8.213 9.811,-13.886C9.294,-35.982 5.41,-46.706 -1.777,-46.019C-4.586,-45.752 -7.055,-43.749 -9.197,-40.017C-11.338,-36.281 -12.307,-31.24 -12.113,-24.899C-11.848,-16.175 -11.585,-7.451 -11.326,1.274C-11.139,7.621 -9.887,12.438 -7.577,15.728C-5.27,19.025 -2.749,20.536 0,20.268M-62.674,-94.953C-51.328,-96.115 -39.971,-97.22 -28.601,-98.268C-25.635,-98.571 -22.978,-97.185 -20.642,-94.126C-18.305,-91.06 -16.971,-86.475 -16.646,-80.37C-12.116,-88.775 -6.476,-95.347 0.275,-100.07C7.027,-104.792 13.772,-107.445 20.474,-108.029C32.149,-109.047 41.884,-102.285 49.512,-87.796C57.145,-73.302 61.053,-50.739 61.301,-20.135C61.446,-2.675 60.284,12.326 57.871,24.877C55.457,37.433 52.145,47.167 47.945,54.092C39.888,66.789 30.301,73.629 19.081,74.667C7.854,75.706 2.947,69.554 -3.81,56.141C-4.68,54.641 -5.312,54.247 -5.707,54.969C-6.102,55.691 -6.278,56.732 -6.24,58.091C-5.799,74.178 -7.967,82.107 -8.174,101.211C-8.215,108.713 -10.545,123.841 -11.73,127.26C-12.914,130.675 -15.471,132.591 -19.384,133.008C-30.445,134.188 -41.492,135.425 -52.523,136.721C-56.316,137.166 -58.945,135.658 -60.414,132.197C-61.887,128.73 -62.844,123.269 -63.273,115.81C-64.418,94.321 -65.732,66.825 -67.266,33.307C-68.842,-3.732 -70.492,-64.77 -72.221,-101.807C-72.447,-106.335 -71.506,-110.26 -69.379,-113.581C-67.254,-116.898 -65.018,-94.689 -62.674,-94.953" style="fill:rgb(34,107,44);fill-rule:nonzero;"/>
            </g>
            <g transform="matrix(1,0,0,1,1318.89,4405.24)">
                <path d="M0,-246.823C12.215,-247.622 24.443,-248.356 36.685,-249.026C40.893,-249.256 43.686,-247.644 45.068,-244.205C46.443,-240.761 47.293,-235.194 47.611,-227.508C48.154,-200.339 49.729,-165.193 49.115,-117.245C48.497,-69.298 49.359,-34.429 48.115,-16.245C47.816,-12.602 47.115,-9.245 43.115,-5.245C40.646,-2.776 36.986,-0.64 32.773,0.174C28.56,0.991 23.607,1.582 17.927,1.95C12.242,2.318 7.158,2.433 2.666,2.294C-5.016,1.698 -9.027,-3.101 -9.393,-12.147C-10.584,-31.782 -11.226,-66.703 -11.461,-116.923C-11.701,-167.136 -11.521,-202.829 -10.679,-223.987C-10.365,-231.719 -9.558,-237.389 -8.257,-240.998C-6.952,-244.6 -4.202,-246.548 0,-246.823" style="fill:rgb(34,107,44);fill-rule:nonzero;"/>
            </g>
            <g transform="matrix(1,0,0,1,1459.86,4385.87)">
                <path d="M0,-141.697C-7.59,-141.501 -12.077,-130.158 -13.489,-107.71C-7.616,-106.978 -4.562,-106.607 -4.317,-106.615C3.796,-106.835 8.072,-111.904 8.493,-121.876C9.056,-135.238 6.218,-141.855 0,-141.697M-44.579,-146.613C-38.712,-151.933 -32.698,-155.826 -26.546,-158.292C-20.397,-160.755 -12.824,-162.123 -3.844,-162.357C5.14,-162.591 13.646,-160.793 21.641,-156.983C29.632,-153.169 43.475,-152.606 47.145,-145.867C53.54,-133.503 52.145,-119.867 50.145,-100.867C47.673,-77.382 24.145,-70.867 8.145,-71.867C-0.259,-72.392 -7.943,-78.196 -16.855,-80.867C-17.042,-65.925 -15.825,-35.727 -13.468,-29.689C-11.11,-23.651 -6.63,-20.731 0.001,-20.904C6.634,-21.075 12.183,-22.556 16.67,-25.364C21.155,-28.171 24.804,-31.006 27.619,-33.885C30.431,-36.759 32.784,-38.212 34.667,-38.241C36.548,-38.27 42.985,-48.017 44.145,-44.867C45.981,-40.821 44.145,-26.867 43.145,-17.867C42.356,-10.769 39.94,-4.783 38.29,-2.162C36.638,0.463 34.126,3.045 30.755,5.586C18.872,14.827 2.556,19.68 -18.264,20.342C-35.52,20.894 -49.386,13.614 -60.142,-1.641C-70.889,-16.886 -76.103,-37.843 -75.587,-64.594C-75.335,-77.514 -73.836,-101.42 -71.046,-112.31C-68.255,-123.194 -64.618,-132.309 -60.125,-139.637C-55.632,-146.965 -50.45,-141.294 -44.579,-146.613" style="fill:rgb(34,107,44);fill-rule:nonzero;"/>
            </g>
            <g transform="matrix(1,0,0,1,1541.41,4396)">
                <path d="M0,-169.57C12.287,-169.581 24.584,-169.524 36.893,-169.401C41.181,-169.358 44.032,-167.678 45.43,-164.382C46.824,-161.081 47.275,-156.152 46.783,-149.597C46.477,-145.527 46.17,-141.457 45.862,-137.387C54.67,-161.259 67.134,-173.075 83.1,-172.7C88.418,-172.575 92.529,-169.409 95.402,-163.217C98.276,-157.026 99.243,-148.846 98.32,-138.685C97.402,-128.523 94.969,-118.459 91.074,-108.494C87.178,-98.523 82.578,-93.605 77.263,-93.724C74.783,-93.78 71.523,-96.168 67.453,-100.888C63.381,-105.603 59.957,-107.985 57.231,-108.03C54.498,-108.075 51.528,-106.305 48.334,-102.732C45.136,-99.154 43.225,-93.177 42.572,-84.819C39.729,-48.424 38.425,-25.361 36.758,-13.623C36.088,-9.781 33.787,-5.402 31.871,-2.483C29.949,0.442 26.842,2.168 22.537,2.702C18.232,3.237 13.982,3.505 9.787,3.496C5.587,3.488 -1.511,3.026 -11.515,2.162C-14.377,1.952 -16.549,0.38 -18.035,-2.551C-19.525,-5.478 -20.271,-8.865 -20.266,-12.714C-20.174,-27.41 -19.186,-49.919 -17.348,-80.247C-15.514,-110.569 -14.059,-131.34 -12.9,-142.547C-11.746,-153.754 -10.387,-161.058 -8.801,-164.458C-7.221,-167.858 -4.284,-169.566 0,-169.57" style="fill:rgb(34,107,44);fill-rule:nonzero;"/>
            </g>
            <g transform="matrix(1,0,0,1,830.476,4192.94)">
                <path d="M0,-106.8C-13.319,-104.435 -21.831,-98.741 -25.517,-89.823C-29.216,-80.901 -29.188,-67.834 -25.544,-50.629C-19.802,-23.537 -10.315,-11.257 3.058,-13.688C5.795,-14.184 7.576,-14.592 8.407,-14.919C6.677,-14.608 4.555,-17.939 2.017,-24.91C-0.519,-31.882 -2.871,-36.095 -4.476,-43.944C-6.476,-56.944 -5.375,-59.62 -1.858,-63.353C1.524,-66.944 6.172,-68.378 12.686,-69.523C19.196,-70.666 23.747,-71.403 26.33,-71.759C28.907,-72.111 31.913,-72.27 35.321,-72.23C38.735,-72.185 41.437,-71.709 43.423,-70.809C48.048,-68.753 50.878,-64.981 51.904,-59.506C54.257,-47.013 56.591,-34.517 58.909,-22.02C61.389,-8.665 61.323,2.324 58.792,10.949C56.254,19.577 49.64,25.485 38.948,28.746C23.946,33.289 0.698,38.359 -30.685,44.467C-43.267,46.919 -54.533,46.702 -64.566,43.786C-74.599,40.872 -83.067,35.714 -89.991,28.281C-102.714,14.429 -112.04,-4.601 -117.874,-28.904C-123.702,-53.197 -122.308,-76.279 -113.284,-98.118C-104.28,-119.944 -88.421,-133.896 -65.902,-139.704C-50.474,-143.772 -39.218,-146.393 -32.187,-147.693C-6.606,-152.408 12.005,-153.719 23.507,-151.953C31.327,-150.794 36.317,-144.642 38.466,-133.527C41.337,-118.644 38.972,-110.584 31.428,-109.316C29.024,-109.085 24.183,-108.8 16.907,-108.432C9.631,-108.059 3.991,-107.508 0,-106.8" style="fill:rgb(79,186,94);fill-rule:nonzero;"/>
            </g>
            <g transform="matrix(1,0,0,1,994.61,4112.34)">
                <path d="M0,54.023C8.547,52.886 11.398,42.699 8.475,23.412C7.137,14.631 5.223,7.991 2.726,3.485C0.232,-1.015 -3.609,-2.93 -8.771,-2.242C-13.936,-1.552 -17.018,1.287 -18.022,6.254C-19.029,11.226 -18.82,18.093 -17.42,26.864C-14.336,46.126 -8.557,55.163 0,54.023M6.295,95.331C-47.049,102.488 -77.59,83.661 -86.11,36.992C-90.098,14.89 -86.299,-3.356 -74.408,-17.675C-62.533,-31.977 -42.877,-41.153 -15.557,-44.813C11.76,-48.465 33.521,-44.83 49.41,-34.225C65.308,-23.61 74.656,-7.095 77.588,15.172C83.664,62.224 59.643,88.315 6.295,95.331" style="fill:rgb(79,186,94);fill-rule:nonzero;"/>
            </g>
            <g transform="matrix(1,0,0,1,1175.37,4091.36)">
                <path d="M0,55.806C8.643,55.121 12.039,45.098 10.121,25.684C9.242,16.845 7.67,10.114 5.4,5.483C3.131,0.857 -0.621,-1.257 -5.836,-0.841C-11.059,-0.424 -14.3,2.247 -15.568,7.156C-16.842,12.068 -16.994,18.937 -16.051,27.768C-13.971,47.165 -8.646,56.494 0,55.806M4.142,97.388C-49.788,101.727 -79.432,81.324 -85.518,34.271C-88.35,11.991 -83.574,-6.031 -70.888,-19.705C-58.219,-33.363 -38.01,-41.494 -10.401,-43.712C17.21,-45.921 38.854,-41.143 54.245,-29.716C69.644,-18.277 78.166,-1.292 79.935,21.1C83.559,68.409 58.066,93.193 4.142,97.388" style="fill:rgb(79,186,94);fill-rule:nonzero;"/>
            </g>
            <g transform="matrix(1,0,0,1,691.023,4430.2)">
                <path d="M0,-137.843C-10.653,-135.031 -17.093,-127.837 -19.313,-116.337C-21.539,-104.833 -20.354,-87.856 -15.869,-65.406C-8.792,-30.06 -0.044,-13.851 10.528,-16.718C12.692,-17.304 14.095,-17.797 14.735,-18.205C13.366,-17.837 11.366,-22.213 8.706,-31.33C6.048,-40.448 2.965,-48.957 0.977,-59.197C-1.011,-69.429 -0.101,-77.608 2.226,-81.39C4.546,-85.173 8.306,-87.757 13.492,-89.124C18.675,-90.491 22.306,-91.375 24.366,-91.797C26.432,-92.212 28.841,-92.374 31.616,-92.272C34.382,-92.164 36.614,-91.509 38.297,-90.31C42.214,-87.573 44.812,-82.633 46.091,-75.495C49.02,-59.208 51.932,-42.918 54.828,-26.625C57.923,-9.217 58.773,5.086 57.464,16.278C56.146,27.474 51.346,35.082 43.054,39.146C31.413,44.805 13.228,50.971 -11.413,57.985C-21.291,60.799 -30.369,60.143 -38.719,56.005C-47.073,51.868 -54.391,44.854 -60.706,34.944C-72.315,16.481 -81.747,-8.586 -88.86,-40.333C-95.968,-72.071 -97.083,-101.921 -91.758,-129.891C-86.448,-157.847 -74.708,-175.364 -56.757,-182.237C-44.466,-187.06 -35.472,-190.188 -29.823,-191.708C-9.271,-197.227 5.85,-198.642 15.394,-196.172C21.887,-194.551 26.462,-186.485 29.118,-171.991C32.67,-152.587 31.411,-142.125 25.376,-140.581C23.437,-140.316 19.526,-140.015 13.631,-139.657C7.737,-139.295 3.19,-138.686 0,-137.843" style="fill:rgb(79,186,94);fill-rule:nonzero;"/>
            </g>
            <g transform="matrix(1,0,0,1,759.289,4434.31)">
                <path d="M0,-149.079C11.583,-151.883 23.187,-154.626 34.81,-157.308C38.862,-158.244 41.929,-157.257 43.99,-154.367C46.052,-151.471 47.589,-146.776 48.61,-140.283C49.243,-136.251 49.874,-132.22 50.504,-128.187C53.401,-153.432 62.469,-167.773 77.591,-171.049C82.627,-172.14 87.215,-169.996 91.313,-164.625C95.419,-159.253 98.173,-151.512 99.595,-141.41C101.021,-131.308 101.005,-120.957 99.589,-110.368C98.17,-99.772 94.956,-93.936 89.925,-92.84C87.582,-92.328 83.977,-93.911 79.077,-97.577C74.181,-101.238 70.423,-102.778 67.845,-102.199C65.263,-101.621 62.865,-99.221 60.666,-95.016C58.465,-90.803 56.433,-83.595 57.711,-75.308C63.264,-39.233 67.711,-4.165 67.711,7.692C67.711,13.692 67.225,15.568 65.711,18.692C63.595,23.061 64.144,11.996 60.222,13.496C56.292,14.996 52.354,16.224 48.407,17.17C44.452,18.116 37.675,19.282 28.062,20.715C25.319,21.161 22.923,20.124 20.857,17.608C18.791,15.098 17.325,11.971 16.457,8.223C13.216,-6.105 9.046,-28.241 3.9,-58.182C-1.246,-88.117 -4.579,-108.668 -6.034,-119.84C-7.493,-131.012 -7.862,-138.432 -7.139,-142.101C-6.419,-145.771 -4.04,-148.1 0,-149.079" style="fill:rgb(79,186,94);fill-rule:nonzero;"/>
            </g>
            <g transform="matrix(1,0,0,1,936.481,4287)">
                <path d="M0,96.086C5.098,95.102 7.494,92.697 7.17,88.841C6.554,81.366 5.543,71.547 4.137,59.387C3.589,54.658 1.433,52.648 -2.326,53.367C-6.084,54.086 -8.934,56.423 -10.855,60.364C-12.779,64.313 -13.325,69.657 -12.51,76.408C-11.692,83.16 -10.098,88.262 -7.725,91.712C-5.352,95.169 -2.781,96.623 0,96.086M-7.99,-43.619C31.561,-50.979 54.102,-30.272 59.09,17.462C61.338,37.726 63.268,56.319 64.904,73.243C66.543,90.165 67.564,101.572 68.011,107.457C68.455,113.348 68.078,117.713 66.882,120.555C65.682,123.4 63.024,125.179 58.875,125.908C46.672,128.055 34.492,130.271 22.332,132.557C18.662,133.248 15.996,132.435 14.328,130.106C12.664,127.779 11.473,124.038 10.772,118.875C10.748,118.653 10.675,118.265 10.553,117.709C10.428,117.161 10.344,116.659 10.293,116.205C4.42,132.979 -4.955,142.623 -17.953,145.246C-26.964,147.065 -35.169,144.206 -42.67,136.656C-50.164,129.108 -55,117.546 -57.108,101.93C-59.217,86.319 -58.629,73.367 -55.259,63.078C-51.898,52.795 -47.215,45.304 -41.229,40.631C-35.246,35.959 -28.551,32.892 -21.162,31.445C-13.771,30 -6.359,29.958 1.056,31.318C1.003,30.868 0.95,30.418 0.898,29.968C-0.416,18.71 -2.527,10.822 -5.44,6.309C-8.351,1.8 -12.416,0.034 -17.608,1.036C-22.801,2.036 -27.018,3.727 -30.258,6.094C-33.498,8.462 -35.895,10.727 -37.443,12.88C-41.622,19.249 -44.637,22.631 -46.531,23.016C-48.428,23.4 -50.338,22.06 -52.266,18.992C-54.197,15.925 -55.641,10.853 -56.591,3.775C-57.547,-3.303 -57.521,-8.33 -56.506,-11.307C-55.494,-14.283 -53.672,-17.426 -51.027,-20.727C-41.846,-32.271 -27.477,-39.967 -7.99,-43.619" style="fill:rgb(79,186,94);fill-rule:nonzero;"/>
            </g>
            <g transform="matrix(1,0,0,1,1089.27,4333.74)">
                <path d="M0,11.339C6.954,10.347 9.72,-1.161 8.236,-23.216C6.749,-45.266 2.429,-55.808 -4.685,-54.806C-7.453,-54.414 -9.825,-52.304 -11.788,-48.48C-13.753,-44.653 -14.489,-39.575 -14.018,-33.249C-13.368,-24.545 -12.724,-15.841 -12.083,-7.137C-11.617,-0.805 -10.159,3.953 -7.724,7.139C-5.288,10.33 -2.714,11.727 0,11.339M-67.317,-101.002C-56.101,-102.664 -44.868,-104.269 -33.622,-105.818C-30.692,-106.252 -27.987,-104.986 -25.534,-102.031C-23.077,-99.072 -21.56,-94.551 -20.961,-88.466C-16.833,-97.062 -11.521,-103.879 -5.023,-108.894C1.472,-113.909 8.054,-116.857 14.684,-117.739C26.227,-119.271 36.198,-112.946 44.407,-98.81C52.626,-84.669 57.489,-62.3 59.083,-31.738C59.991,-14.302 59.493,0.736 57.653,13.382C55.808,26.033 52.942,35.904 49.083,43.009C41.644,56.048 32.427,63.308 21.334,64.841C10.239,66.376 1.124,60.623 -6.175,47.523C-7.106,46.062 -7.749,45.697 -8.11,46.435C-8.476,47.174 -8.604,48.221 -8.504,49.577C-7.358,65.628 -6.47,83.206 -5.831,102.302C-5.538,109.798 -5.915,115.277 -6.937,118.745C-7.966,122.209 -10.413,124.235 -14.282,124.825C-25.212,126.493 -36.123,128.217 -47.019,129.997C-50.765,130.61 -53.439,129.218 -55.052,125.824C-56.661,122.426 -57.853,117.014 -58.612,109.581C-60.701,88.163 -63.216,60.751 -66.218,27.335C-69.417,-9.598 -72.692,-46.528 -76.044,-83.453C-76.469,-87.967 -75.708,-91.93 -73.74,-95.34C-71.774,-98.748 -69.636,-100.636 -67.317,-101.002" style="fill:rgb(79,186,94);fill-rule:nonzero;"/>
            </g>
            <g transform="matrix(1,0,0,1,1233.89,4315.34)">
                <path d="M0,12.417C7.031,11.735 10.323,0.362 9.811,-21.737C9.291,-43.833 5.418,-54.557 -1.777,-53.87C-4.578,-53.602 -7.057,-51.6 -9.197,-47.868C-11.342,-44.131 -12.309,-39.091 -12.113,-32.75C-11.848,-24.026 -11.585,-15.302 -11.326,-6.577C-11.14,-0.23 -9.888,4.587 -7.577,7.877C-5.267,11.175 -2.747,12.684 0,12.417M-62.674,-102.804C-51.328,-103.966 -39.971,-105.071 -28.601,-106.119C-25.639,-106.422 -22.979,-105.037 -20.642,-101.977C-18.303,-98.912 -16.971,-94.326 -16.646,-88.222C-12.117,-96.626 -6.472,-103.199 0.275,-107.921C7.024,-112.643 13.769,-115.296 20.474,-115.88C32.145,-116.898 41.882,-110.136 49.512,-95.647C57.148,-81.153 61.051,-58.59 61.301,-27.986C61.447,-10.526 60.287,4.475 57.871,17.026C55.454,29.582 52.143,39.316 47.945,46.241C39.887,58.938 30.299,65.777 19.081,66.816C7.855,67.855 -1.053,61.703 -7.81,48.29C-8.68,46.79 -9.313,46.397 -9.707,47.118C-10.104,47.84 -10.279,48.881 -10.24,50.24C-9.8,66.327 -9.682,83.926 -9.891,103.031C-9.931,110.533 -10.545,115.99 -11.73,119.409C-12.918,122.824 -15.469,124.74 -19.384,125.157C-30.445,126.337 -41.492,127.574 -52.523,128.87C-56.315,129.315 -58.944,127.808 -60.414,124.346C-61.887,120.878 -62.842,115.419 -63.273,107.959C-64.418,86.469 -65.732,58.974 -67.266,25.456C-68.842,-11.583 -70.492,-48.621 -72.221,-85.658C-72.446,-90.186 -71.504,-94.111 -69.379,-97.432C-67.252,-100.749 -65.018,-102.54 -62.674,-102.804" style="fill:rgb(79,186,94);fill-rule:nonzero;"/>
            </g>
            <g transform="matrix(1,0,0,1,1322.89,4370.24)">
                <path d="M0,-246.823C12.215,-247.622 24.443,-248.356 36.685,-249.026C40.893,-249.256 43.687,-247.643 45.068,-244.205C46.441,-240.761 47.297,-235.194 47.611,-227.508C48.152,-200.339 48.174,-162.776 47.56,-114.828C46.943,-66.882 45.912,-33.818 44.672,-15.634C44.376,-11.991 43.369,-8.65 41.66,-5.611C39.947,-2.568 36.99,-0.64 32.773,0.174C28.557,0.99 23.605,1.582 17.927,1.95C12.242,2.318 7.156,2.433 2.666,2.294C-5.017,1.697 -9.033,-3.101 -9.393,-12.147C-10.585,-31.782 -11.224,-66.704 -11.461,-116.923C-11.706,-167.136 -11.516,-202.829 -10.679,-223.987C-10.365,-231.719 -9.563,-237.389 -8.257,-240.998C-6.953,-244.6 -4.201,-246.548 0,-246.823" style="fill:rgb(79,186,94);fill-rule:nonzero;"/>
            </g>
            <g transform="matrix(1,0,0,1,1461.86,4327.87)">
                <path d="M0,-95.697C-7.589,-95.5 -12.078,-84.158 -13.489,-61.71C-7.615,-60.978 -4.562,-60.608 -4.317,-60.615C3.795,-60.836 8.072,-65.904 8.493,-75.876C9.052,-89.238 6.214,-95.856 0,-95.697M-42.579,-123.613C-36.712,-128.933 -30.694,-132.825 -24.546,-135.292C-18.399,-137.756 -10.829,-139.123 -1.844,-139.357C7.14,-139.591 15.65,-137.793 23.641,-133.983C31.634,-130.169 37.462,-124.877 41.132,-118.137C47.526,-105.773 50.22,-91.202 49.313,-74.453C47.86,-48.175 35.132,-34.972 11.261,-34.44C2.845,-34.248 -5.807,-35.486 -14.716,-38.157C-14.901,-23.215 -13.824,-12.728 -11.468,-6.689C-9.115,-0.651 -4.635,2.269 2.001,2.096C8.633,1.925 14.184,0.443 18.67,-2.364C23.155,-5.171 26.805,-8.006 29.619,-10.885C32.431,-13.759 34.784,-15.213 36.667,-15.241C38.547,-15.27 40.068,-13.706 41.233,-10.556C43.065,-6.509 43.783,-0.921 43.376,6.208C42.974,13.338 41.937,18.217 40.29,20.838C38.638,23.463 36.126,26.044 32.755,28.586C20.87,37.827 4.56,42.68 -16.264,43.342C-33.518,43.894 -47.384,36.614 -58.142,21.359C-68.896,6.114 -74.101,-14.843 -73.587,-41.594C-73.335,-54.513 -71.837,-66.42 -69.046,-77.31C-66.251,-88.194 -62.62,-97.309 -58.125,-104.637C-53.632,-111.965 -48.448,-118.294 -42.579,-123.613" style="fill:rgb(79,186,94);fill-rule:nonzero;"/>
            </g>
            <g transform="matrix(1,0,0,1,1545.41,4361)">
                <path d="M0,-169.57C12.287,-169.581 24.584,-169.524 36.893,-169.401C41.182,-169.358 44.03,-167.677 45.43,-164.382C46.826,-161.081 47.274,-156.151 46.783,-149.597C46.477,-145.527 46.17,-141.457 45.862,-137.387C54.664,-161.258 67.137,-173.075 83.1,-172.7C88.418,-172.575 92.527,-169.409 95.402,-163.217C98.275,-157.026 99.242,-148.846 98.32,-138.685C97.402,-128.523 94.966,-118.459 91.074,-108.494C87.178,-98.522 82.58,-93.605 77.263,-93.724C74.783,-93.78 71.525,-96.168 67.453,-100.888C63.381,-105.603 59.963,-107.985 57.231,-108.03C54.497,-108.074 51.529,-106.305 48.334,-102.732C45.137,-99.153 43.225,-93.177 42.572,-84.819C39.731,-48.424 37.424,-24.362 35.758,-12.623C35.087,-8.781 33.788,-5.402 31.871,-2.483C29.948,0.441 26.839,2.168 22.537,2.702C18.23,3.237 13.98,3.505 9.787,3.496C5.588,3.488 -1.514,3.027 -11.515,2.162C-14.375,1.952 -16.549,0.381 -18.035,-2.551C-19.525,-5.478 -20.27,-8.864 -20.266,-12.714C-20.172,-27.41 -19.186,-49.92 -17.348,-80.247C-15.514,-110.57 -14.059,-131.34 -12.9,-142.547C-11.746,-153.754 -10.385,-161.058 -8.801,-164.458C-7.221,-167.858 -4.285,-169.566 0,-169.57" style="fill:rgb(79,186,94);fill-rule:nonzero;"/>
            </g>
            <g transform="matrix(1,0,0,1,830.476,4201.94)">
                <path d="M0,-106.8C-13.319,-104.435 -21.831,-98.74 -25.517,-89.823C-29.216,-80.901 -29.188,-67.834 -25.544,-50.629C-19.802,-23.537 -10.315,-11.258 3.058,-13.688C5.795,-14.184 7.576,-14.592 8.407,-14.919C6.677,-14.609 4.555,-17.939 2.017,-24.91C-0.519,-31.881 -2.601,-39.288 -4.206,-47.137C-6.476,-58.944 -5.044,-60.391 -1.858,-63.353C1.315,-66.314 6.172,-68.378 12.686,-69.523C19.196,-70.666 23.747,-71.403 26.33,-71.759C28.907,-72.11 31.913,-72.27 35.321,-72.23C38.735,-72.185 41.437,-71.71 43.423,-70.809C48.048,-68.753 50.878,-64.981 51.904,-59.506C54.257,-47.013 56.591,-34.517 58.909,-22.02C61.389,-8.665 61.323,2.324 58.792,10.949C56.254,19.577 49.64,25.485 38.948,28.746C23.946,33.289 0.698,38.359 -30.685,44.467C-43.267,46.919 -54.533,46.702 -64.566,43.786C-74.599,40.872 -83.067,35.714 -89.991,28.281C-102.714,14.43 -112.04,-4.601 -117.874,-28.904C-123.702,-53.197 -122.308,-76.279 -113.284,-98.118C-104.28,-119.944 -88.421,-133.896 -65.902,-139.704C-50.474,-143.771 -39.218,-146.393 -32.187,-147.693C-6.606,-152.408 12.005,-153.719 23.507,-151.953C31.327,-150.794 36.317,-144.642 38.466,-133.527C41.337,-118.644 38.972,-110.584 31.428,-109.316C29.024,-109.085 24.183,-108.8 16.907,-108.432C9.631,-108.059 3.991,-107.509 0,-106.8" style="fill:rgb(46,153,64);fill-rule:nonzero;"/>
            </g>
            <g transform="matrix(1,0,0,1,994.61,4121.34)">
                <path d="M0,54.024C8.547,52.887 11.398,42.699 8.475,23.413C7.137,14.632 5.223,7.992 2.726,3.486C0.232,-1.015 -3.609,-2.929 -8.771,-2.241C-13.936,-1.551 -17.018,1.288 -18.022,6.255C-19.029,11.228 -18.82,18.094 -17.42,26.865C-14.336,46.127 -8.557,55.164 0,54.024M6.295,95.332C-47.049,102.488 -77.59,83.661 -86.11,36.993C-90.098,14.89 -86.299,-3.355 -74.408,-17.674C-62.533,-31.976 -42.877,-41.152 -15.557,-44.812C11.76,-48.464 33.521,-44.83 49.41,-34.224C65.308,-23.609 74.656,-7.094 77.588,15.173C83.664,62.225 59.643,88.316 6.295,95.332" style="fill:rgb(46,153,64);fill-rule:nonzero;"/>
            </g>
            <g transform="matrix(1,0,0,1,1175.37,4100.36)">
                <path d="M0,55.805C8.643,55.12 12.039,45.097 10.121,25.683C9.242,16.844 7.67,10.113 5.4,5.482C3.131,0.856 -0.621,-1.258 -5.836,-0.842C-11.059,-0.426 -14.3,2.246 -15.568,7.155C-16.842,12.067 -16.994,18.936 -16.051,27.767C-13.971,47.164 -8.646,56.493 0,55.805M4.142,97.387C-49.788,101.727 -79.432,81.322 -85.518,34.27C-88.35,11.99 -83.574,-6.032 -70.888,-19.706C-58.219,-33.365 -38.01,-41.495 -10.401,-43.713C17.21,-45.922 38.854,-41.144 54.245,-29.717C69.644,-18.278 78.166,-1.293 79.935,21.099C83.559,68.407 58.066,93.192 4.142,97.387" style="fill:rgb(46,153,64);fill-rule:nonzero;"/>
            </g>
            <g transform="matrix(1,0,0,1,691.023,4439.2)">
                <path d="M0,-137.844C-10.653,-135.032 -17.093,-127.839 -19.313,-116.338C-21.539,-104.834 -20.354,-87.857 -15.869,-65.407C-8.792,-30.061 -0.044,-13.851 10.528,-16.719C12.692,-17.305 14.095,-17.798 14.735,-18.206C13.366,-17.838 11.366,-22.214 8.706,-31.331C6.048,-40.448 3.722,-50.122 1.733,-60.362C-0.255,-70.594 -0.101,-77.609 2.226,-81.391C4.546,-85.174 8.306,-87.757 13.492,-89.125C18.675,-90.492 22.306,-91.375 24.366,-91.798C26.432,-92.214 28.841,-92.375 31.616,-92.273C34.382,-92.165 36.614,-91.51 38.297,-90.311C42.214,-87.574 44.812,-82.635 46.091,-75.496C49.02,-59.209 51.932,-42.919 54.828,-26.626C57.923,-9.218 58.773,5.086 57.464,16.277C56.146,27.473 51.346,35.081 43.054,39.145C31.413,44.803 13.228,50.97 -11.413,57.984C-21.291,60.798 -30.369,60.142 -38.719,56.004C-47.073,51.868 -54.391,44.853 -60.706,34.943C-72.315,16.479 -81.747,-8.587 -88.86,-40.334C-95.968,-72.072 -97.083,-101.923 -91.758,-129.892C-86.448,-157.848 -74.708,-175.366 -56.757,-182.238C-44.466,-187.061 -35.472,-190.189 -29.823,-191.709C-9.271,-197.228 5.85,-198.642 15.394,-196.173C21.887,-194.552 26.462,-186.485 29.118,-171.992C32.67,-152.589 31.411,-142.126 25.376,-140.582C23.437,-140.316 19.526,-140.016 13.631,-139.658C7.737,-139.295 3.19,-138.687 0,-137.844" style="fill:rgb(46,153,64);fill-rule:nonzero;"/>
            </g>
            <g transform="matrix(1,0,0,1,759.289,4441.41)">
                <path d="M0,-147.178C11.583,-149.982 23.187,-152.725 34.81,-155.407C38.862,-156.343 41.929,-155.356 43.99,-152.466C46.052,-149.57 47.589,-144.875 48.61,-138.382C49.243,-134.35 49.874,-130.319 50.504,-126.286C53.401,-151.531 62.469,-165.872 77.591,-169.148C82.627,-170.239 87.215,-168.095 91.313,-162.724C95.419,-157.353 98.173,-149.611 99.595,-139.509C101.021,-129.407 101.005,-119.056 99.589,-108.467C98.17,-97.871 94.956,-92.035 89.925,-90.939C87.582,-90.427 83.977,-92.01 79.077,-95.676C74.181,-99.338 70.423,-100.877 67.845,-100.298C65.263,-99.719 62.865,-97.32 60.666,-93.115C58.465,-88.902 58.014,-82.649 59.292,-74.364C64.845,-38.288 68.108,-14.338 69.192,-2.532C69.429,1.36 68.97,4.946 67.828,8.223C66.683,11.508 64.144,13.897 60.222,15.397C56.292,16.897 52.354,18.126 48.407,19.071C44.452,20.016 37.675,21.183 28.062,22.616C25.319,23.061 22.923,22.026 20.857,19.509C18.791,17 17.325,13.872 16.457,10.124C13.216,-4.204 9.046,-26.34 3.9,-56.281C-1.246,-86.216 -4.579,-106.767 -6.034,-117.939C-7.493,-129.111 -7.862,-136.531 -7.139,-140.2C-6.419,-143.87 -4.04,-146.199 0,-147.178" style="fill:rgb(46,153,64);fill-rule:nonzero;"/>
            </g>
            <g transform="matrix(1,0,0,1,936.481,4296)">
                <path d="M0,96.087C5.098,95.103 7.494,92.698 7.17,88.842C6.554,81.367 5.543,71.548 4.137,59.388C3.589,54.66 1.433,52.649 -2.326,53.368C-6.084,54.088 -8.934,56.424 -10.855,60.365C-12.779,64.314 -13.325,69.658 -12.51,76.409C-11.692,83.161 -10.098,88.263 -7.725,91.713C-5.352,95.17 -2.781,96.624 0,96.087M-7.99,-43.618C31.561,-50.979 54.102,-30.271 59.09,17.463C61.338,37.727 63.268,56.32 64.904,73.244C66.543,90.166 67.564,101.573 68.011,107.458C68.455,113.349 68.078,117.714 66.882,120.556C65.682,123.4 63.024,125.18 58.875,125.909C46.672,128.056 34.492,130.272 22.332,132.558C18.662,133.249 15.996,132.436 14.328,130.107C12.664,127.78 11.473,124.039 10.772,118.876C10.748,118.655 10.675,118.267 10.553,117.71C10.428,117.162 10.344,116.661 10.293,116.206C4.42,132.98 -4.955,142.624 -17.953,145.247C-26.964,147.066 -35.169,144.207 -42.67,136.657C-50.164,129.109 -55,117.548 -57.108,101.931C-59.217,86.32 -58.629,73.368 -55.259,63.079C-51.898,52.796 -47.215,45.306 -41.229,40.632C-35.246,35.96 -28.551,32.893 -21.162,31.446C-13.771,30.001 -6.359,29.958 1.056,31.319C1.003,30.869 0.95,30.419 0.898,29.969C-0.416,18.711 -2.527,10.823 -5.44,6.31C-8.351,1.801 -12.416,0.035 -17.608,1.037C-22.801,2.037 -27.018,3.728 -30.258,6.095C-33.498,8.463 -35.895,10.728 -37.443,12.881C-41.622,19.25 -45.586,22.618 -47.481,23.003C-49.377,23.388 -51.338,22.061 -53.266,18.993C-55.197,15.927 -55.641,10.855 -56.591,3.776C-57.547,-3.302 -57.521,-8.328 -56.506,-11.306C-55.494,-14.282 -53.672,-17.425 -51.027,-20.726C-41.846,-32.269 -27.477,-39.967 -7.99,-43.618" style="fill:rgb(46,153,64);fill-rule:nonzero;"/>
            </g>
            <g transform="matrix(1,0,0,1,1089.27,4342.74)">
                <path d="M0,11.339C6.954,10.347 9.72,-1.161 8.236,-23.216C6.749,-45.267 2.429,-55.808 -4.685,-54.806C-7.453,-54.414 -9.825,-52.303 -11.788,-48.48C-13.753,-44.653 -14.489,-39.575 -14.018,-33.249C-13.368,-24.545 -12.724,-15.841 -12.083,-7.137C-11.617,-0.805 -10.159,3.953 -7.724,7.139C-5.288,10.33 -2.714,11.727 0,11.339M-67.317,-101.002C-56.101,-102.664 -44.868,-104.269 -33.622,-105.818C-30.692,-106.252 -27.987,-104.985 -25.534,-102.031C-23.077,-99.073 -21.56,-94.551 -20.961,-88.466C-16.833,-97.062 -11.521,-103.878 -5.023,-108.894C1.472,-113.91 8.054,-116.857 14.684,-117.739C26.227,-119.271 36.198,-112.946 44.407,-98.81C52.626,-84.668 57.489,-62.3 59.083,-31.738C59.991,-14.302 59.493,0.735 57.653,13.382C55.808,26.033 52.942,35.904 49.083,43.009C41.644,56.048 32.427,63.307 21.334,64.841C10.239,66.376 1.124,60.622 -6.175,47.523C-7.106,46.063 -7.749,45.697 -8.11,46.435C-8.476,47.174 -8.604,48.22 -8.504,49.577C-7.358,65.629 -6.47,83.206 -5.831,102.302C-5.538,109.798 -5.915,115.277 -6.937,118.745C-7.966,122.209 -10.413,124.235 -14.282,124.825C-25.212,126.493 -36.123,128.217 -47.019,129.997C-50.765,130.61 -53.439,129.218 -55.052,125.824C-56.661,122.426 -57.853,117.014 -58.612,109.581C-60.701,88.163 -63.216,60.752 -66.218,27.335C-69.417,-9.598 -72.692,-46.528 -76.044,-83.453C-76.469,-87.966 -75.708,-91.931 -73.74,-95.34C-71.774,-98.748 -69.636,-100.636 -67.317,-101.002" style="fill:rgb(46,153,64);fill-rule:nonzero;"/>
            </g>
            <g transform="matrix(1,0,0,1,1233.89,4324.34)">
                <path d="M0,12.417C7.031,11.735 10.323,0.362 9.811,-21.737C9.291,-43.834 5.418,-54.557 -1.777,-53.87C-4.578,-53.603 -7.057,-51.6 -9.197,-47.868C-11.342,-44.132 -12.309,-39.091 -12.113,-32.75C-11.848,-24.026 -11.585,-15.302 -11.326,-6.577C-11.14,-0.23 -9.888,4.587 -7.577,7.877C-5.267,11.175 -2.747,12.685 0,12.417M-62.674,-102.804C-51.328,-103.966 -39.971,-105.071 -28.601,-106.119C-25.639,-106.423 -22.979,-105.036 -20.642,-101.977C-18.303,-98.912 -16.971,-94.326 -16.646,-88.222C-12.117,-96.626 -6.472,-103.199 0.275,-107.921C7.024,-112.644 13.769,-115.296 20.474,-115.88C32.145,-116.898 41.882,-110.135 49.512,-95.647C57.148,-81.153 61.051,-58.59 61.301,-27.986C61.447,-10.526 60.287,4.475 57.871,17.026C55.454,29.581 52.143,39.317 47.945,46.241C39.887,58.938 30.299,65.777 19.081,66.816C7.855,67.856 -1.053,61.703 -7.81,48.29C-8.68,46.791 -9.313,46.396 -9.707,47.118C-10.104,47.84 -10.279,48.881 -10.24,50.24C-9.8,66.327 -9.682,83.926 -9.891,103.031C-9.931,110.534 -10.545,115.99 -11.73,119.409C-12.918,122.824 -15.469,124.74 -19.384,125.157C-30.445,126.337 -41.492,127.574 -52.523,128.87C-56.315,129.315 -58.944,127.807 -60.414,124.346C-61.887,120.879 -62.842,115.418 -63.273,107.959C-64.418,86.469 -65.732,58.974 -67.266,25.456C-68.842,-11.583 -70.492,-48.621 -72.221,-85.658C-72.446,-90.187 -71.504,-94.111 -69.379,-97.432C-67.252,-100.749 -65.018,-102.54 -62.674,-102.804" style="fill:rgb(46,153,64);fill-rule:nonzero;"/>
            </g>
            <g transform="matrix(1,0,0,1,1322.89,4379.24)">
                <path d="M0,-246.823C12.215,-247.622 24.443,-248.356 36.685,-249.026C40.893,-249.257 43.687,-247.643 45.068,-244.205C46.441,-240.761 47.297,-235.194 47.611,-227.508C48.152,-200.339 48.174,-162.776 47.56,-114.828C46.943,-66.882 45.912,-33.818 44.672,-15.634C44.376,-11.991 43.369,-8.65 41.66,-5.611C39.947,-2.568 36.99,-0.64 32.773,0.174C28.557,0.99 23.605,1.583 17.927,1.95C12.242,2.318 7.156,2.434 2.666,2.294C-5.017,1.698 -9.033,-3.101 -9.393,-12.147C-10.585,-31.782 -11.224,-66.704 -11.461,-116.923C-11.706,-167.136 -11.516,-202.829 -10.679,-223.987C-10.365,-231.719 -9.563,-237.389 -8.257,-240.998C-6.953,-244.6 -4.201,-246.548 0,-246.823" style="fill:rgb(46,153,64);fill-rule:nonzero;"/>
            </g>
            <g transform="matrix(1,0,0,1,1461.86,4341.87)">
                <path d="M0,-105.698C-7.589,-105.502 -12.078,-94.159 -13.489,-71.711C-7.615,-70.979 -4.562,-70.609 -4.317,-70.616C3.795,-70.836 8.072,-75.905 8.493,-85.877C9.052,-99.238 6.214,-105.856 0,-105.698M-42.579,-128.614C-36.712,-133.933 -30.694,-137.827 -24.546,-140.293C-18.399,-142.757 -10.829,-144.123 -1.844,-144.358C7.14,-144.592 15.65,-142.794 23.641,-138.984C31.634,-135.17 37.462,-129.878 41.132,-123.138C47.526,-110.774 50.22,-96.204 49.313,-79.454C47.86,-53.176 35.132,-39.973 11.261,-39.441C2.845,-39.249 -5.807,-40.487 -14.716,-43.158C-14.901,-28.216 -13.824,-17.729 -11.468,-11.69C-9.115,-5.652 -4.635,-2.732 2.001,-2.905C8.633,-3.076 14.184,-4.558 18.67,-7.365C23.155,-10.172 26.805,-13.007 29.619,-15.886C32.431,-18.76 34.784,-20.213 36.667,-20.242C38.547,-20.271 40.068,-18.707 41.233,-15.557C43.065,-11.51 43.783,-5.923 43.376,1.207C42.974,8.337 41.937,13.216 40.29,15.837C38.638,18.463 36.126,21.043 32.755,23.585C20.87,32.826 4.56,37.679 -16.264,38.341C-33.518,38.894 -47.384,31.613 -58.142,16.358C-68.896,1.113 -74.101,-19.844 -73.587,-46.595C-73.335,-59.514 -71.837,-71.421 -69.046,-82.311C-66.251,-93.195 -62.62,-102.31 -58.125,-109.638C-53.632,-116.966 -48.448,-123.295 -42.579,-128.614" style="fill:rgb(46,153,64);fill-rule:nonzero;"/>
            </g>
            <g transform="matrix(1,0,0,1,1545.41,4370)">
                <path d="M0,-169.57C12.287,-169.581 24.584,-169.524 36.893,-169.401C41.182,-169.358 44.03,-167.677 45.43,-164.382C46.826,-161.081 47.274,-156.151 46.783,-149.597C46.477,-145.527 46.17,-141.457 45.862,-137.387C54.664,-161.258 67.137,-173.075 83.1,-172.7C88.418,-172.575 92.527,-169.409 95.402,-163.217C98.275,-157.026 99.242,-148.846 98.32,-138.685C97.402,-128.523 94.966,-118.459 91.074,-108.494C87.178,-98.523 82.58,-93.605 77.263,-93.724C74.783,-93.781 71.525,-96.168 67.453,-100.888C63.381,-105.604 59.963,-107.985 57.231,-108.03C54.497,-108.075 51.529,-106.305 48.334,-102.732C45.137,-99.154 43.225,-93.178 42.572,-84.819C39.731,-48.424 37.424,-24.362 35.758,-12.623C35.087,-8.781 34.788,-4.402 32.871,-1.483C30.948,1.442 26.839,2.167 22.537,2.702C18.23,3.238 13.98,3.505 9.787,3.496C5.588,3.487 -1.514,3.026 -11.515,2.162C-14.375,1.951 -16.549,0.38 -18.035,-2.551C-19.525,-5.478 -20.27,-8.864 -20.266,-12.714C-20.172,-27.411 -19.186,-49.92 -17.348,-80.247C-15.514,-110.569 -14.059,-131.34 -12.9,-142.547C-11.746,-153.754 -10.385,-161.058 -8.801,-164.458C-7.221,-167.858 -4.285,-169.566 0,-169.57" style="fill:rgb(46,153,64);fill-rule:nonzero;"/>
            </g>
            <g transform="matrix(1,0,0,1,1198.13,4084.84)">
                <path d="M0,5.524C-2.613,1.233 2.416,-9.763 6.653,-11.771C10.891,-13.779 34.209,-1.334 35.478,2.844C37.88,11.829 30.179,17.308 25.945,18.305C21.712,19.303 2.612,9.815 0,5.524" style="fill:rgb(79,186,94);fill-rule:nonzero;"/>
            </g>
            <g transform="matrix(1,0,0,1,1166.8,4067.28)">
                <path d="M0,11.93C-2.704,10 -2.521,1.976 -0.475,-0.361C1.572,-2.698 15.757,-0.834 17.616,1.38C21.417,6.226 21.379,11.189 19.072,12.909C16.764,14.628 2.704,13.86 0,11.93" style="fill:rgb(79,186,94);fill-rule:nonzero;"/>
            </g>
            <g transform="matrix(1,0,0,1,858.85,4168.54)">
                <path d="M0,-27.888C1.226,-32.445 10.166,-34.533 13.441,-32.2C16.716,-29.867 20.949,-3.779 19.125,-0.386C15.042,6.645 8.017,3.436 5.336,0.537C2.657,-2.363 -1.225,-23.332 0,-27.888" style="fill:rgb(79,186,94);fill-rule:nonzero;"/>
            </g>
            <g transform="matrix(1,0,0,1,692.427,4283.33)">
                <path d="M0,-27.338C1.319,-31.935 10.895,-34.247 14.397,-31.988C17.899,-29.73 22.388,-3.684 20.428,-0.238C16.045,6.909 8.529,3.865 5.665,1.024C2.8,-1.817 -1.32,-22.741 0,-27.338" style="fill:rgb(79,186,94);fill-rule:nonzero;"/>
            </g>
            <g transform="matrix(1,0,0,1,1342.16,4185.97)">
                <path d="M0,-43.156C1.811,-49.261 11.795,-50.58 15.131,-46.763C18.467,-42.946 20.388,-5.998 18.042,-1.611C12.853,7.424 5.51,1.73 2.882,-2.767C0.255,-7.264 -1.811,-37.05 0,-43.156" style="fill:rgb(79,186,94);fill-rule:nonzero;"/>
            </g>
            <g transform="matrix(1,0,0,1,1204.39,4438.03)">
                <path d="M0,-38.064C-1.458,-32.886 -1.573,-9.288 -0.569,-2.054C0.435,5.179 9.522,4.029 10.548,-2.138C12.652,-15.681 11.105,-32.018 9.95,-37.487C8.794,-42.956 1.458,-43.243 0,-38.064" style="fill:rgb(79,186,94);fill-rule:nonzero;"/>
            </g>
            <g transform="matrix(1,0,0,1,1477.46,4223.27)">
                <path d="M0,1.693C-1.261,-1.299 2.456,-8.264 5.102,-9.336C7.748,-10.409 20.735,-0.785 21.207,2.052C22.03,8.133 17.098,11.292 14.522,11.697C11.946,12.102 1.261,4.685 0,1.693" style="fill:rgb(79,186,94);fill-rule:nonzero;"/>
            </g>
            <g transform="matrix(1,0,0,1,1456.65,4206.43)">
                <path d="M0,7.379C-1.603,5.815 -0.901,0.058 0.589,-1.489C2.08,-3.035 11.092,-0.768 12.129,0.945C14.227,4.678 13.841,8.243 12.228,9.329C10.614,10.414 1.603,8.942 0,7.379" style="fill:rgb(79,186,94);fill-rule:nonzero;"/>
            </g>
            <g transform="matrix(1,0,0,1,954.044,4276.04)">
                <path d="M0,1.84C-1.372,-1.415 2.672,-8.993 5.551,-10.16C8.43,-11.326 22.561,-0.855 23.074,2.232C23.969,8.848 18.604,12.284 15.801,12.725C12.998,13.166 1.373,5.096 0,1.84" style="fill:rgb(79,186,94);fill-rule:nonzero;"/>
            </g>
            <g transform="matrix(1,0,0,1,934.65,4260.43)">
                <path d="M0,7.379C-1.603,5.815 -0.901,0.058 0.589,-1.489C2.08,-3.035 11.092,-0.768 12.129,0.945C14.227,4.678 13.841,8.243 12.228,9.329C10.614,10.414 1.603,8.942 0,7.379" style="fill:rgb(79,186,94);fill-rule:nonzero;"/>
            </g>
            <g transform="matrix(1,0,0,1,1204.43,4377.05)">
                <path d="M0,13.961C-1.252,11.739 -0.418,2.429 0.878,-0.297C2.176,-3.021 9.504,-0.952 10.283,1.605C11.847,7.202 11.371,12.96 9.993,14.971C8.615,16.982 1.252,16.182 0,13.961" style="fill:rgb(79,186,94);fill-rule:nonzero;"/>
            </g>
            <g transform="matrix(1,0,0,1,674,4473.62)">
                <path d="M0,-0.618C-5.062,2.068 -13,-1.618 -15.382,-4.778C-16.729,-6.563 -24,-18.618 -26.957,-10.267C-27.898,-7.609 -28.694,-0.307 -24.112,6.127C-19.988,12.495 -10.473,18 -1.325,15.553C8.749,12.491 8.938,-3.932 0,-0.618" style="fill:rgb(79,186,94);fill-rule:nonzero;"/>
            </g>
            <g transform="matrix(1,0,0,1,1098.94,4257.8)">
                <path d="M0,-10.528C5.711,-10.99 11.542,-4.463 12.479,-0.618C13.008,1.555 14.912,15.503 20.933,9.006C22.851,6.937 26.472,0.547 24.812,-7.175C23.546,-14.656 16.989,-23.478 7.62,-24.853C-2.844,-26.031 -9.52,-11.023 0,-10.528" style="fill:rgb(79,186,94);fill-rule:nonzero;"/>
            </g>
            <g transform="matrix(1,0,0,1,1620.7,4222.09)">
                <path d="M0,-7.459C4.045,-7.785 8.175,-3.162 8.838,-0.438C9.213,1.1 10.563,10.98 14.828,6.378C16.186,4.913 18.75,0.387 17.575,-5.084C16.678,-10.382 12.033,-16.632 5.397,-17.605C-2.015,-18.439 -6.744,-7.809 0,-7.459" style="fill:rgb(79,186,94);fill-rule:nonzero;"/>
            </g>
            <g transform="matrix(1,0,0,1,832.918,4298.99)">
                <path d="M0,-9.764C4.674,-8.982 8.034,-2.571 8.009,0.703C7.995,2.551 8.942,13.007 15.082,9.01C17.037,7.738 18.998,4.461 19.224,-2.069C19.718,-8.324 16.239,-16.723 9.001,-19.716C0.847,-22.771 -7.536,-12.081 0,-9.764" style="fill:rgb(79,186,94);fill-rule:nonzero;"/>
            </g>
            <g transform="matrix(1,0,0,1,1044.56,4188.4)">
                <path d="M0,-15.299C1.176,-10.708 -3.328,-5.042 -6.331,-3.739C-8.028,-3.004 -17.206,2.092 -11.067,6.09C-9.112,7.363 -5.321,7.829 0.741,5.395C6.661,3.316 12.934,-3.264 12.743,-11.094C12.238,-19.787 -0.93,-23.128 0,-15.299" style="fill:rgb(79,186,94);fill-rule:nonzero;"/>
            </g>
            <g transform="matrix(1,0,0,1,743.456,4087.55)">
                <path d="M0,25.141C-2.348,18.963 3.226,8.663 7.307,5.412C9.612,3.576 21.92,-7.992 12.599,-11.074C9.631,-12.055 4.169,-11.033 -4.097,-4.754C-12.213,0.944 -20.17,13.374 -18.748,24.725C-16.75,37.196 2.474,36.159 0,25.141" style="fill:rgb(79,186,94);fill-rule:nonzero;"/>
            </g>
        </g>
    </g>
</svg>
