<?xml version="1.0" encoding="UTF-8" standalone="no"?>
<!DOCTYPE svg PUBLIC "-//W3C//DTD SVG 1.1//EN" "http://www.w3.org/Graphics/SVG/1.1/DTD/svg11.dtd">
<svg width="100%" height="100%" viewBox="0 0 728 306" version="1.1" xmlns="http://www.w3.org/2000/svg" xmlns:xlink="http://www.w3.org/1999/xlink" xml:space="preserve" xmlns:serif="http://www.serif.com/" style="fill-rule:evenodd;clip-rule:evenodd;stroke-miterlimit:10;">
    <g id="Artboard1" transform="matrix(1.03263,0,0,1.05899,-41.7437,-222.191)">
        <rect x="40.425" y="209.814" width="704.881" height="288.186" style="fill:none;"/>
        <clipPath id="_clip1">
            <rect x="40.425" y="209.814" width="704.881" height="288.186"/>
        </clipPath>
        <g clip-path="url(#_clip1)">
            <g id="Form" transform="matrix(0.968401,0,0,0.944296,13.3094,22.8434)">
                <g>
                    <g transform="matrix(2.34204,0.0712391,-0.0547518,1.20154,143.52,260.206)">
                        <path d="M0,179.41C-34.47,159.472 -53.386,39.481 -30.706,10.48C-8.026,-18.522 205.003,-19.939 229.5,4.075C253.996,28.089 262.459,135.158 246.177,154.419C229.895,173.68 34.47,199.349 0,179.41" style="fill:rgb(34,107,44);fill-rule:nonzero;"/>
                    </g>
                    <g transform="matrix(2.34204,0.0712391,-0.0547518,1.20154,149.147,219.629)">
                        <path d="M0,179.41C-34.47,159.472 -53.386,39.481 -30.706,10.48C-8.026,-18.522 205.003,-19.939 229.499,4.075C253.996,28.089 262.459,135.158 246.177,154.419C229.895,173.68 34.47,199.349 0,179.41" style="fill:rgb(79,186,94);fill-rule:nonzero;"/>
                    </g>
                    <g transform="matrix(2.34204,0.0712391,-0.0547518,1.20154,156.004,241.783)">
                        <path d="M0,175.979C-34.85,158.846 -60.21,42.09 -33.877,15.64C-9.961,-17.133 202.035,-17.133 226.833,0.516C252.897,19.066 262.184,125.623 245.667,142.29C229.152,158.957 34.85,193.112 0,175.979" style="fill:rgb(46,153,64);fill-rule:nonzero;"/>
                    </g>
                    <g transform="matrix(1.50877,0.947976,1.79213,-0.741699,35.4764,333.751)">
                        <path d="M115.382,-44.197C74.296,-54.985 -45.074,24.26 -55.439,64.251C-65.805,104.244 77.444,268.255 115.382,268.233C153.321,268.212 254.129,191.067 260.184,163.574C266.241,136.08 156.468,-33.409 115.382,-44.197Z" style="fill:none;stroke:rgb(29,68,23);stroke-width:9.11px;"/>
                    </g>
                    <g transform="matrix(1.95683,0.0712391,-0.0457466,1.20154,639.263,281.309)">
                        <path d="M0,5.118C-2.168,1.143 2.005,-9.044 5.521,-10.904C9.038,-12.764 28.388,-1.236 29.439,2.635C31.434,10.958 25.043,16.034 21.529,16.958C18.017,17.882 2.168,9.093 0,5.118" style="fill:rgb(79,186,94);fill-rule:nonzero;"/>
                    </g>
                    <g transform="matrix(1.95683,0.0712391,-0.0457466,1.20154,589.126,259.907)">
                        <path d="M0,11.051C-2.243,9.263 -2.093,1.83 -0.394,-0.335C1.305,-2.5 13.076,-0.773 14.618,1.279C17.772,5.767 17.741,10.364 15.826,11.958C13.911,13.551 2.244,12.839 0,11.051" style="fill:rgb(79,186,94);fill-rule:nonzero;"/>
                    </g>
                </g>
                <g transform="matrix(7.15739,0,0,7.15739,-954.903,-268.894)">
                    <path d="M161.86,89.746L161.844,81.058C161.929,80.173 162.308,79.709 162.98,79.666C163.46,79.656 166.655,79.65 172.564,79.65C173.204,79.65 173.524,80.125 173.524,81.074C173.524,81.554 173.241,81.794 172.676,81.794L169.188,81.794C168.964,81.794 168.785,81.869 168.652,82.018C168.519,82.168 168.452,82.365 168.452,82.61L168.452,83.746C168.452,84.077 168.591,84.242 168.868,84.242L171.524,84.242C171.78,84.242 171.972,84.301 172.1,84.418C172.228,84.536 172.292,84.805 172.292,85.226C172.292,85.648 172.231,85.917 172.108,86.034C171.985,86.152 171.785,86.21 171.508,86.21L169.124,86.21C168.857,86.21 168.673,86.274 168.572,86.402C168.471,86.53 168.42,86.733 168.42,87.01L168.42,89.762C168.42,90.136 168.34,90.413 168.18,90.594C168.02,90.776 167.812,90.866 167.556,90.866L163.012,90.866C162.713,90.866 162.457,90.768 162.244,90.57C162.031,90.373 161.903,90.098 161.86,89.746Z" style="fill:rgb(29,68,23);fill-rule:nonzero;"/>
                    <path d="M179.62,86.866C179.62,88.061 179.935,88.658 180.564,88.658C181.193,88.658 181.508,88.061 181.508,86.866C181.508,86.322 181.444,85.904 181.316,85.61C181.188,85.317 180.937,85.17 180.564,85.17C180.191,85.17 179.94,85.317 179.812,85.61C179.684,85.904 179.62,86.322 179.62,86.866ZM186.532,86.866C186.532,89.768 184.543,91.218 180.564,91.218C176.585,91.218 174.596,89.768 174.596,86.866C174.596,85.49 175.103,84.424 176.116,83.666C177.129,82.909 178.612,82.53 180.564,82.53C182.516,82.53 183.999,82.909 185.012,83.666C186.025,84.424 186.532,85.49 186.532,86.866Z" style="fill:rgb(29,68,23);fill-rule:nonzero;"/>
                    <path d="M189.156,82.722L192.276,82.722C192.639,82.722 192.889,82.8 193.028,82.954C193.167,83.109 193.236,83.341 193.236,83.65L193.236,84.226C193.833,83.096 194.804,82.53 196.148,82.53C196.596,82.53 196.964,82.674 197.252,82.962C197.54,83.25 197.684,83.634 197.684,84.114C197.684,84.594 197.556,85.072 197.3,85.546C197.044,86.021 196.687,86.258 196.228,86.258C196.015,86.258 195.716,86.149 195.332,85.93C194.948,85.712 194.639,85.602 194.404,85.602C194.169,85.602 193.927,85.688 193.676,85.858C193.425,86.029 193.3,86.312 193.3,86.706C193.3,88.424 193.268,89.56 193.204,90.114C193.172,90.296 193.081,90.456 192.932,90.594C192.783,90.733 192.519,90.816 192.14,90.842C191.761,90.869 191.385,90.882 191.012,90.882C190.639,90.882 190.004,90.861 189.108,90.818C188.852,90.808 188.649,90.733 188.5,90.594C188.351,90.456 188.265,90.296 188.244,90.114C188.169,89.421 188.132,88.36 188.132,86.93C188.132,85.501 188.153,84.522 188.196,83.994C188.239,83.466 188.319,83.122 188.436,82.962C188.553,82.802 188.793,82.722 189.156,82.722Z" style="fill:rgb(29,68,23);fill-rule:nonzero;"/>
                    <path d="M212.34,90.178L212.356,86.274C212.356,85.954 212.276,85.714 212.116,85.554C211.956,85.394 211.756,85.314 211.516,85.314C211.276,85.314 211.057,85.397 210.86,85.562C210.663,85.728 210.564,85.96 210.564,86.258L210.58,88.578C210.58,89.314 210.575,89.821 210.564,90.098C210.553,90.376 210.481,90.576 210.348,90.698C210.215,90.821 209.956,90.882 209.572,90.882L206.5,90.914C206.159,90.914 205.921,90.853 205.788,90.73C205.655,90.608 205.588,90.424 205.588,90.178L205.604,86.274C205.604,85.954 205.524,85.714 205.364,85.554C205.204,85.394 205.004,85.314 204.764,85.314C204.524,85.314 204.305,85.397 204.108,85.562C203.911,85.728 203.812,85.96 203.812,86.258L203.812,87.234C203.812,88.642 203.78,89.602 203.716,90.114C203.684,90.296 203.593,90.456 203.444,90.594C203.295,90.733 203.031,90.816 202.652,90.842C202.273,90.869 201.897,90.882 201.524,90.882C201.151,90.882 200.516,90.861 199.62,90.818C199.364,90.808 199.161,90.733 199.012,90.594C198.863,90.456 198.777,90.296 198.756,90.114C198.681,89.421 198.644,88.36 198.644,86.93C198.644,85.501 198.665,84.522 198.708,83.994C198.751,83.466 198.831,83.122 198.948,82.962C199.065,82.802 199.305,82.722 199.668,82.722L202.788,82.722C203.151,82.722 203.393,82.802 203.516,82.962C203.639,83.122 203.716,83.394 203.748,83.778L203.748,83.794C204.569,82.941 205.615,82.514 206.884,82.514C207.663,82.514 208.34,82.664 208.916,82.962C209.492,83.261 209.919,83.698 210.196,84.274C210.548,83.698 211.031,83.261 211.644,82.962C212.257,82.664 212.921,82.514 213.636,82.514C214.724,82.514 215.604,82.802 216.276,83.378C216.948,83.954 217.292,84.749 217.308,85.762C217.324,86.776 217.332,87.682 217.332,88.482C217.332,89.282 217.327,89.821 217.316,90.098C217.305,90.376 217.233,90.576 217.1,90.698C216.967,90.821 216.708,90.882 216.324,90.882L213.252,90.914C212.911,90.914 212.673,90.853 212.54,90.73C212.407,90.608 212.34,90.424 212.34,90.178Z" style="fill:rgb(29,68,23);fill-rule:nonzero;"/>
                </g>
            </g>
        </g>
    </g>
</svg>
