<?xml version="1.0" encoding="UTF-8" standalone="no"?>
<!DOCTYPE svg PUBLIC "-//W3C//DTD SVG 1.1//EN" "http://www.w3.org/Graphics/SVG/1.1/DTD/svg11.dtd">
<svg width="100%" height="100%" viewBox="0 0 727 304" version="1.1" xmlns="http://www.w3.org/2000/svg" xmlns:xlink="http://www.w3.org/1999/xlink" xml:space="preserve" xmlns:serif="http://www.serif.com/" style="fill-rule:evenodd;clip-rule:evenodd;stroke-miterlimit:10;">
    <g id="Artboard1" transform="matrix(1.03121,0,0,1.05205,-41.6863,-220.735)">
        <rect x="40.425" y="209.814" width="704.881" height="288.186" style="fill:none;"/>
        <clipPath id="_clip1">
            <rect x="40.425" y="209.814" width="704.881" height="288.186"/>
        </clipPath>
        <g clip-path="url(#_clip1)">
            <g transform="matrix(0.969734,0,0,0.950525,15.2115,21.6101)">
                <g>
                    <g transform="matrix(2.34204,0.0712391,-0.0547518,1.20154,143.52,260.206)">
                        <path d="M0,179.41C-34.47,159.472 -53.386,39.481 -30.706,10.48C-8.026,-18.522 205.003,-19.939 229.5,4.075C253.996,28.089 262.459,135.158 246.177,154.419C229.895,173.68 34.47,199.349 0,179.41" style="fill:rgb(34,107,44);fill-rule:nonzero;"/>
                    </g>
                    <g transform="matrix(2.34204,0.0712391,-0.0547518,1.20154,149.147,219.629)">
                        <path d="M0,179.41C-34.47,159.472 -53.386,39.481 -30.706,10.48C-8.026,-18.522 205.003,-19.939 229.499,4.075C253.996,28.089 262.459,135.158 246.177,154.419C229.895,173.68 34.47,199.349 0,179.41" style="fill:rgb(79,186,94);fill-rule:nonzero;"/>
                    </g>
                    <g transform="matrix(2.34204,0.0712391,-0.0547518,1.20154,156.004,241.783)">
                        <path d="M0,175.979C-34.85,158.846 -60.21,42.09 -33.877,15.64C-9.961,-17.133 202.035,-17.133 226.833,0.516C252.897,19.066 262.184,125.623 245.667,142.29C229.152,158.957 34.85,193.112 0,175.979" style="fill:rgb(46,153,64);fill-rule:nonzero;"/>
                    </g>
                    <g transform="matrix(1.50877,0.947976,1.79213,-0.741699,35.4764,333.751)">
                        <path d="M115.382,-44.197C74.296,-54.985 -45.074,24.26 -55.439,64.251C-65.805,104.244 77.444,268.255 115.382,268.233C153.321,268.212 254.129,191.067 260.184,163.574C266.241,136.08 156.468,-33.409 115.382,-44.197Z" style="fill:none;stroke:rgb(29,68,23);stroke-width:9.11px;"/>
                    </g>
                    <g transform="matrix(1.95683,0.0712391,-0.0457466,1.20154,639.263,281.309)">
                        <path d="M0,5.118C-2.168,1.143 2.005,-9.044 5.521,-10.904C9.038,-12.764 28.388,-1.236 29.439,2.635C31.434,10.958 25.043,16.034 21.529,16.958C18.017,17.882 2.168,9.093 0,5.118" style="fill:rgb(79,186,94);fill-rule:nonzero;"/>
                    </g>
                    <g transform="matrix(1.95683,0.0712391,-0.0457466,1.20154,589.126,259.907)">
                        <path d="M0,11.051C-2.243,9.263 -2.093,1.83 -0.394,-0.335C1.305,-2.5 13.076,-0.773 14.618,1.279C17.772,5.767 17.741,10.364 15.826,11.958C13.911,13.551 2.244,12.839 0,11.051" style="fill:rgb(79,186,94);fill-rule:nonzero;"/>
                    </g>
                </g>
                <g transform="matrix(5.74201,0,0,5.74201,-790.673,-142.426)">
                    <text x="160.948px" y="90.866px" style="font-family:'Chango-Regular', 'Chango';font-size:16px;fill:rgb(29,68,23);">Location</text>
                </g>
            </g>
            <g transform="matrix(0.969734,0,0,0.950525,15.2115,21.6101)">
                <g>
                    <g transform="matrix(2.34204,0.0712391,-0.0547518,1.20154,143.52,260.206)">
                        <path d="M0,179.41C-34.47,159.472 -53.386,39.481 -30.706,10.48C-8.026,-18.522 205.003,-19.939 229.5,4.075C253.996,28.089 262.459,135.158 246.177,154.419C229.895,173.68 34.47,199.349 0,179.41" style="fill:rgb(34,107,44);fill-rule:nonzero;"/>
                    </g>
                    <g transform="matrix(2.34204,0.0712391,-0.0547518,1.20154,149.147,219.629)">
                        <path d="M0,179.41C-34.47,159.472 -53.386,39.481 -30.706,10.48C-8.026,-18.522 205.003,-19.939 229.499,4.075C253.996,28.089 262.459,135.158 246.177,154.419C229.895,173.68 34.47,199.349 0,179.41" style="fill:rgb(79,186,94);fill-rule:nonzero;"/>
                    </g>
                    <g transform="matrix(2.34204,0.0712391,-0.0547518,1.20154,156.004,241.783)">
                        <path d="M0,175.979C-34.85,158.846 -60.21,42.09 -33.877,15.64C-9.961,-17.133 202.035,-17.133 226.833,0.516C252.897,19.066 262.184,125.623 245.667,142.29C229.152,158.957 34.85,193.112 0,175.979" style="fill:rgb(46,153,64);fill-rule:nonzero;"/>
                    </g>
                    <g transform="matrix(1.50877,0.947976,1.79213,-0.741699,35.4764,333.751)">
                        <path d="M115.382,-44.197C74.296,-54.985 -45.074,24.26 -55.439,64.251C-65.805,104.244 77.444,268.255 115.382,268.233C153.321,268.212 254.129,191.067 260.184,163.574C266.241,136.08 156.468,-33.409 115.382,-44.197Z" style="fill:none;stroke:rgb(29,68,23);stroke-width:9.11px;"/>
                    </g>
                    <g transform="matrix(1.95683,0.0712391,-0.0457466,1.20154,639.263,281.309)">
                        <path d="M0,5.118C-2.168,1.143 2.005,-9.044 5.521,-10.904C9.038,-12.764 28.388,-1.236 29.439,2.635C31.434,10.958 25.043,16.034 21.529,16.958C18.017,17.882 2.168,9.093 0,5.118" style="fill:rgb(79,186,94);fill-rule:nonzero;"/>
                    </g>
                    <g transform="matrix(1.95683,0.0712391,-0.0457466,1.20154,589.126,259.907)">
                        <path d="M0,11.051C-2.243,9.263 -2.093,1.83 -0.394,-0.335C1.305,-2.5 13.076,-0.773 14.618,1.279C17.772,5.767 17.741,10.364 15.826,11.958C13.911,13.551 2.244,12.839 0,11.051" style="fill:rgb(79,186,94);fill-rule:nonzero;"/>
                    </g>
                </g>
                <g transform="matrix(7.15739,0,0,7.15739,-954.903,-268.894)">
                    <text x="160.948px" y="90.866px" style="font-family:'Chango-Regular', 'Chango';font-size:16px;fill:rgb(29,68,23);">Form</text>
                </g>
            </g>
            <g transform="matrix(0.969734,0,0,0.950525,15.2115,21.6101)">
                <g>
                    <g transform="matrix(2.34204,0.0712391,-0.0547518,1.20154,143.52,260.206)">
                        <path d="M0,179.41C-34.47,159.472 -53.386,39.481 -30.706,10.48C-8.026,-18.522 205.003,-19.939 229.5,4.075C253.996,28.089 262.459,135.158 246.177,154.419C229.895,173.68 34.47,199.349 0,179.41" style="fill:rgb(34,107,44);fill-rule:nonzero;"/>
                    </g>
                    <g transform="matrix(2.34204,0.0712391,-0.0547518,1.20154,149.147,219.629)">
                        <path d="M0,179.41C-34.47,159.472 -53.386,39.481 -30.706,10.48C-8.026,-18.522 205.003,-19.939 229.499,4.075C253.996,28.089 262.459,135.158 246.177,154.419C229.895,173.68 34.47,199.349 0,179.41" style="fill:rgb(79,186,94);fill-rule:nonzero;"/>
                    </g>
                    <g transform="matrix(2.34204,0.0712391,-0.0547518,1.20154,156.004,241.783)">
                        <path d="M0,175.979C-34.85,158.846 -60.21,42.09 -33.877,15.64C-9.961,-17.133 202.035,-17.133 226.833,0.516C252.897,19.066 262.184,125.623 245.667,142.29C229.152,158.957 34.85,193.112 0,175.979" style="fill:rgb(46,153,64);fill-rule:nonzero;"/>
                    </g>
                    <g transform="matrix(1.50877,0.947976,1.79213,-0.741699,35.4764,333.751)">
                        <path d="M115.382,-44.197C74.296,-54.985 -45.074,24.26 -55.439,64.251C-65.805,104.244 77.444,268.255 115.382,268.233C153.321,268.212 254.129,191.067 260.184,163.574C266.241,136.08 156.468,-33.409 115.382,-44.197Z" style="fill:none;stroke:rgb(29,68,23);stroke-width:9.11px;"/>
                    </g>
                    <g transform="matrix(1.95683,0.0712391,-0.0457466,1.20154,639.263,281.309)">
                        <path d="M0,5.118C-2.168,1.143 2.005,-9.044 5.521,-10.904C9.038,-12.764 28.388,-1.236 29.439,2.635C31.434,10.958 25.043,16.034 21.529,16.958C18.017,17.882 2.168,9.093 0,5.118" style="fill:rgb(79,186,94);fill-rule:nonzero;"/>
                    </g>
                    <g transform="matrix(1.95683,0.0712391,-0.0457466,1.20154,589.126,259.907)">
                        <path d="M0,11.051C-2.243,9.263 -2.093,1.83 -0.394,-0.335C1.305,-2.5 13.076,-0.773 14.618,1.279C17.772,5.767 17.741,10.364 15.826,11.958C13.911,13.551 2.244,12.839 0,11.051" style="fill:rgb(79,186,94);fill-rule:nonzero;"/>
                    </g>
                </g>
                <g transform="matrix(7.15739,0,0,7.15739,-969.903,-265.428)">
                    <text x="160.948px" y="90.866px" style="font-family:'Chango-Regular', 'Chango';font-size:16px;fill:rgb(29,68,23);">Video</text>
                </g>
            </g>
            <g transform="matrix(0.969734,0,0,0.950525,15.2115,21.6101)">
                <g>
                    <g transform="matrix(2.34204,0.0712391,-0.0547518,1.20154,143.52,260.206)">
                        <path d="M0,179.41C-34.47,159.472 -53.386,39.481 -30.706,10.48C-8.026,-18.522 205.003,-19.939 229.5,4.075C253.996,28.089 262.459,135.158 246.177,154.419C229.895,173.68 34.47,199.349 0,179.41" style="fill:rgb(34,107,44);fill-rule:nonzero;"/>
                    </g>
                    <g transform="matrix(2.34204,0.0712391,-0.0547518,1.20154,149.147,219.629)">
                        <path d="M0,179.41C-34.47,159.472 -53.386,39.481 -30.706,10.48C-8.026,-18.522 205.003,-19.939 229.499,4.075C253.996,28.089 262.459,135.158 246.177,154.419C229.895,173.68 34.47,199.349 0,179.41" style="fill:rgb(79,186,94);fill-rule:nonzero;"/>
                    </g>
                    <g transform="matrix(2.34204,0.0712391,-0.0547518,1.20154,156.004,241.783)">
                        <path d="M0,175.979C-34.85,158.846 -60.21,42.09 -33.877,15.64C-9.961,-17.133 202.035,-17.133 226.833,0.516C252.897,19.066 262.184,125.623 245.667,142.29C229.152,158.957 34.85,193.112 0,175.979" style="fill:rgb(46,153,64);fill-rule:nonzero;"/>
                    </g>
                    <g transform="matrix(1.50877,0.947976,1.79213,-0.741699,35.4764,333.751)">
                        <path d="M115.382,-44.197C74.296,-54.985 -45.074,24.26 -55.439,64.251C-65.805,104.244 77.444,268.255 115.382,268.233C153.321,268.212 254.129,191.067 260.184,163.574C266.241,136.08 156.468,-33.409 115.382,-44.197Z" style="fill:none;stroke:rgb(29,68,23);stroke-width:9.11px;"/>
                    </g>
                    <g transform="matrix(1.95683,0.0712391,-0.0457466,1.20154,639.263,281.309)">
                        <path d="M0,5.118C-2.168,1.143 2.005,-9.044 5.521,-10.904C9.038,-12.764 28.388,-1.236 29.439,2.635C31.434,10.958 25.043,16.034 21.529,16.958C18.017,17.882 2.168,9.093 0,5.118" style="fill:rgb(79,186,94);fill-rule:nonzero;"/>
                    </g>
                    <g transform="matrix(1.95683,0.0712391,-0.0457466,1.20154,589.126,259.907)">
                        <path d="M0,11.051C-2.243,9.263 -2.093,1.83 -0.394,-0.335C1.305,-2.5 13.076,-0.773 14.618,1.279C17.772,5.767 17.741,10.364 15.826,11.958C13.911,13.551 2.244,12.839 0,11.051" style="fill:rgb(79,186,94);fill-rule:nonzero;"/>
                    </g>
                </g>
                <g transform="matrix(7.15739,0,0,7.15739,-978.903,-263.894)">
                    <text x="160.948px" y="90.866px" style="font-family:'Chango-Regular', 'Chango';font-size:16px;fill:rgb(29,68,23);">Home</text>
                </g>
            </g>
        </g>
    </g>
</svg>
