<?xml version="1.0" encoding="UTF-8" standalone="no"?>
<!DOCTYPE svg PUBLIC "-//W3C//DTD SVG 1.1//EN" "http://www.w3.org/Graphics/SVG/1.1/DTD/svg11.dtd">
<svg width="100%" height="100%" viewBox="0 0 728 306" version="1.1" xmlns="http://www.w3.org/2000/svg" xmlns:xlink="http://www.w3.org/1999/xlink" xml:space="preserve" xmlns:serif="http://www.serif.com/" style="fill-rule:evenodd;clip-rule:evenodd;stroke-miterlimit:10;">
    <g id="Artboard1" transform="matrix(1.03263,0,0,1.05899,-41.7437,-222.191)">
        <rect x="40.425" y="209.814" width="704.881" height="288.186" style="fill:none;"/>
        <clipPath id="_clip1">
            <rect x="40.425" y="209.814" width="704.881" height="288.186"/>
        </clipPath>
        <g clip-path="url(#_clip1)">
            <g id="Home" transform="matrix(0.968401,0,0,0.944296,13.3094,22.8434)">
                <g>
                    <g transform="matrix(2.34204,0.0712391,-0.0547518,1.20154,143.52,260.206)">
                        <path d="M0,179.41C-34.47,159.472 -53.386,39.481 -30.706,10.48C-8.026,-18.522 205.003,-19.939 229.5,4.075C253.996,28.089 262.459,135.158 246.177,154.419C229.895,173.68 34.47,199.349 0,179.41" style="fill:rgb(34,107,44);fill-rule:nonzero;"/>
                    </g>
                    <g transform="matrix(2.34204,0.0712391,-0.0547518,1.20154,149.147,219.629)">
                        <path d="M0,179.41C-34.47,159.472 -53.386,39.481 -30.706,10.48C-8.026,-18.522 205.003,-19.939 229.499,4.075C253.996,28.089 262.459,135.158 246.177,154.419C229.895,173.68 34.47,199.349 0,179.41" style="fill:rgb(79,186,94);fill-rule:nonzero;"/>
                    </g>
                    <g transform="matrix(2.34204,0.0712391,-0.0547518,1.20154,156.004,241.783)">
                        <path d="M0,175.979C-34.85,158.846 -60.21,42.09 -33.877,15.64C-9.961,-17.133 202.035,-17.133 226.833,0.516C252.897,19.066 262.184,125.623 245.667,142.29C229.152,158.957 34.85,193.112 0,175.979" style="fill:rgb(46,153,64);fill-rule:nonzero;"/>
                    </g>
                    <g transform="matrix(1.50877,0.947976,1.79213,-0.741699,35.4764,333.751)">
                        <path d="M115.382,-44.197C74.296,-54.985 -45.074,24.26 -55.439,64.251C-65.805,104.244 77.444,268.255 115.382,268.233C153.321,268.212 254.129,191.067 260.184,163.574C266.241,136.08 156.468,-33.409 115.382,-44.197Z" style="fill:none;stroke:rgb(29,68,23);stroke-width:9.11px;"/>
                    </g>
                    <g transform="matrix(1.95683,0.0712391,-0.0457466,1.20154,639.263,281.309)">
                        <path d="M0,5.118C-2.168,1.143 2.005,-9.044 5.521,-10.904C9.038,-12.764 28.388,-1.236 29.439,2.635C31.434,10.958 25.043,16.034 21.529,16.958C18.017,17.882 2.168,9.093 0,5.118" style="fill:rgb(79,186,94);fill-rule:nonzero;"/>
                    </g>
                    <g transform="matrix(1.95683,0.0712391,-0.0457466,1.20154,589.126,259.907)">
                        <path d="M0,11.051C-2.243,9.263 -2.093,1.83 -0.394,-0.335C1.305,-2.5 13.076,-0.773 14.618,1.279C17.772,5.767 17.741,10.364 15.826,11.958C13.911,13.551 2.244,12.839 0,11.051" style="fill:rgb(79,186,94);fill-rule:nonzero;"/>
                    </g>
                </g>
                <g transform="matrix(7.15739,0,0,7.15739,-978.903,-263.894)">
                    <path d="M177.332,89.858C177.311,90.104 177.207,90.322 177.02,90.514C176.833,90.706 176.58,90.813 176.26,90.834C175.385,90.888 174.665,90.914 174.1,90.914C173.535,90.914 172.868,90.888 172.1,90.834C171.513,90.781 171.204,90.525 171.172,90.066C171.161,89.885 171.151,89.648 171.14,89.354C171.129,89.061 171.116,88.802 171.1,88.578C171.084,88.354 171.025,88.178 170.924,88.05C170.823,87.922 170.644,87.858 170.388,87.858L169.188,87.858C168.932,87.858 168.753,87.922 168.652,88.05C168.551,88.178 168.492,88.354 168.476,88.578C168.46,88.802 168.447,89.061 168.436,89.354C168.425,89.648 168.415,89.885 168.404,90.066C168.372,90.525 168.063,90.781 167.476,90.834C166.708,90.888 166.007,90.914 165.372,90.914C164.737,90.914 163.983,90.888 163.108,90.834C162.788,90.813 162.535,90.706 162.348,90.514C162.161,90.322 162.057,90.104 162.036,89.858C161.951,88.92 161.908,87.41 161.908,85.33C161.908,83.25 161.929,81.898 161.972,81.274C162.015,80.65 162.111,80.224 162.26,79.994C162.409,79.765 162.708,79.65 163.156,79.65L167.06,79.65C167.433,79.65 167.751,79.778 168.012,80.034C168.273,80.29 168.404,80.621 168.404,81.026L168.404,84.386C168.404,84.77 168.569,84.962 168.9,84.962L170.676,84.962C171.007,84.962 171.172,84.77 171.172,84.386L171.172,81.026C171.172,80.621 171.303,80.29 171.564,80.034C171.825,79.778 172.143,79.65 172.516,79.65L176.212,79.65C176.66,79.65 176.959,79.765 177.108,79.994C177.257,80.224 177.353,80.65 177.396,81.274C177.439,81.898 177.46,83.25 177.46,85.33C177.46,87.41 177.417,88.92 177.332,89.858Z" style="fill:rgb(29,68,23);fill-rule:nonzero;"/>
                    <path d="M184.084,86.866C184.084,88.061 184.399,88.658 185.028,88.658C185.657,88.658 185.972,88.061 185.972,86.866C185.972,86.322 185.908,85.904 185.78,85.61C185.652,85.317 185.401,85.17 185.028,85.17C184.655,85.17 184.404,85.317 184.276,85.61C184.148,85.904 184.084,86.322 184.084,86.866ZM190.996,86.866C190.996,89.768 189.007,91.218 185.028,91.218C181.049,91.218 179.06,89.768 179.06,86.866C179.06,85.49 179.567,84.424 180.58,83.666C181.593,82.909 183.076,82.53 185.028,82.53C186.98,82.53 188.463,82.909 189.476,83.666C190.489,84.424 190.996,85.49 190.996,86.866Z" style="fill:rgb(29,68,23);fill-rule:nonzero;"/>
                    <path d="M206.292,90.178L206.308,86.274C206.308,85.954 206.228,85.714 206.068,85.554C205.908,85.394 205.708,85.314 205.468,85.314C205.228,85.314 205.009,85.397 204.812,85.562C204.615,85.728 204.516,85.96 204.516,86.258L204.532,88.578C204.532,89.314 204.527,89.821 204.516,90.098C204.505,90.376 204.433,90.576 204.3,90.698C204.167,90.821 203.908,90.882 203.524,90.882L200.452,90.914C200.111,90.914 199.873,90.853 199.74,90.73C199.607,90.608 199.54,90.424 199.54,90.178L199.556,86.274C199.556,85.954 199.476,85.714 199.316,85.554C199.156,85.394 198.956,85.314 198.716,85.314C198.476,85.314 198.257,85.397 198.06,85.562C197.863,85.728 197.764,85.96 197.764,86.258L197.764,87.234C197.764,88.642 197.732,89.602 197.668,90.114C197.636,90.296 197.545,90.456 197.396,90.594C197.247,90.733 196.983,90.816 196.604,90.842C196.225,90.869 195.849,90.882 195.476,90.882C195.103,90.882 194.468,90.861 193.572,90.818C193.316,90.808 193.113,90.733 192.964,90.594C192.815,90.456 192.729,90.296 192.708,90.114C192.633,89.421 192.596,88.36 192.596,86.93C192.596,85.501 192.617,84.522 192.66,83.994C192.703,83.466 192.783,83.122 192.9,82.962C193.017,82.802 193.257,82.722 193.62,82.722L196.74,82.722C197.103,82.722 197.345,82.802 197.468,82.962C197.591,83.122 197.668,83.394 197.7,83.778L197.7,83.794C198.521,82.941 199.567,82.514 200.836,82.514C201.615,82.514 202.292,82.664 202.868,82.962C203.444,83.261 203.871,83.698 204.148,84.274C204.5,83.698 204.983,83.261 205.596,82.962C206.209,82.664 206.873,82.514 207.588,82.514C208.676,82.514 209.556,82.802 210.228,83.378C210.9,83.954 211.244,84.749 211.26,85.762C211.276,86.776 211.284,87.682 211.284,88.482C211.284,89.282 211.279,89.821 211.268,90.098C211.257,90.376 211.185,90.576 211.052,90.698C210.919,90.821 210.66,90.882 210.276,90.882L207.204,90.914C206.863,90.914 206.625,90.853 206.492,90.73C206.359,90.608 206.292,90.424 206.292,90.178Z" style="fill:rgb(29,68,23);fill-rule:nonzero;"/>
                    <path d="M215.252,83.21C215.743,82.97 216.247,82.797 216.764,82.69C217.281,82.584 217.921,82.53 218.684,82.53C219.447,82.53 220.175,82.624 220.868,82.81C221.561,82.997 222.079,83.25 222.42,83.57C223.017,84.157 223.316,84.845 223.316,85.634C223.316,86.872 222.271,87.49 220.18,87.49C219.444,87.49 218.681,87.421 217.892,87.282C217.924,87.986 218.055,88.482 218.284,88.77C218.513,89.058 218.921,89.202 219.508,89.202C220.095,89.202 220.58,89.138 220.964,89.01C221.348,88.882 221.657,88.752 221.892,88.618C222.127,88.485 222.327,88.418 222.492,88.418C222.657,88.418 222.799,88.493 222.916,88.642C223.097,88.834 223.188,89.098 223.188,89.434C223.188,89.77 223.121,90 222.988,90.122C222.855,90.245 222.644,90.365 222.356,90.482C221.343,90.909 219.903,91.122 218.036,91.122C216.489,91.122 215.217,90.752 214.22,90.01C213.223,89.269 212.724,88.269 212.724,87.01C212.724,86.402 212.836,85.845 213.06,85.338C213.284,84.832 213.583,84.41 213.956,84.074C214.329,83.738 214.761,83.45 215.252,83.21ZM218.964,84.354C218.313,84.354 217.961,84.882 217.908,85.938C218.42,85.981 218.687,86.002 218.708,86.002C219.412,86.002 219.764,85.768 219.764,85.298C219.764,84.669 219.497,84.354 218.964,84.354Z" style="fill:rgb(29,68,23);fill-rule:nonzero;"/>
                </g>
            </g>
        </g>
    </g>
</svg>
