<?xml version="1.0" encoding="UTF-8" standalone="no"?>
<!DOCTYPE svg PUBLIC "-//W3C//DTD SVG 1.1//EN" "http://www.w3.org/Graphics/SVG/1.1/DTD/svg11.dtd">
<svg width="100%" height="100%" viewBox="0 0 728 306" version="1.1" xmlns="http://www.w3.org/2000/svg" xmlns:xlink="http://www.w3.org/1999/xlink" xml:space="preserve" xmlns:serif="http://www.serif.com/" style="fill-rule:evenodd;clip-rule:evenodd;stroke-miterlimit:10;">
    <g id="Artboard1" transform="matrix(1.03263,0,0,1.05899,-41.7437,-222.191)">
        <rect x="40.425" y="209.814" width="704.881" height="288.186" style="fill:none;"/>
        <clipPath id="_clip1">
            <rect x="40.425" y="209.814" width="704.881" height="288.186"/>
        </clipPath>
        <g clip-path="url(#_clip1)">
            <g id="Location" transform="matrix(0.968401,0,0,0.944296,13.3094,22.8434)">
                <g>
                    <g transform="matrix(2.34204,0.0712391,-0.0547518,1.20154,143.52,260.206)">
                        <path d="M0,179.41C-34.47,159.472 -53.386,39.481 -30.706,10.48C-8.026,-18.522 205.003,-19.939 229.5,4.075C253.996,28.089 262.459,135.158 246.177,154.419C229.895,173.68 34.47,199.349 0,179.41" style="fill:rgb(34,107,44);fill-rule:nonzero;"/>
                    </g>
                    <g transform="matrix(2.34204,0.0712391,-0.0547518,1.20154,149.147,219.629)">
                        <path d="M0,179.41C-34.47,159.472 -53.386,39.481 -30.706,10.48C-8.026,-18.522 205.003,-19.939 229.499,4.075C253.996,28.089 262.459,135.158 246.177,154.419C229.895,173.68 34.47,199.349 0,179.41" style="fill:rgb(79,186,94);fill-rule:nonzero;"/>
                    </g>
                    <g transform="matrix(2.34204,0.0712391,-0.0547518,1.20154,156.004,241.783)">
                        <path d="M0,175.979C-34.85,158.846 -60.21,42.09 -33.877,15.64C-9.961,-17.133 202.035,-17.133 226.833,0.516C252.897,19.066 262.184,125.623 245.667,142.29C229.152,158.957 34.85,193.112 0,175.979" style="fill:rgb(46,153,64);fill-rule:nonzero;"/>
                    </g>
                    <g transform="matrix(1.50877,0.947976,1.79213,-0.741699,35.4764,333.751)">
                        <path d="M115.382,-44.197C74.296,-54.985 -45.074,24.26 -55.439,64.251C-65.805,104.244 77.444,268.255 115.382,268.233C153.321,268.212 254.129,191.067 260.184,163.574C266.241,136.08 156.468,-33.409 115.382,-44.197Z" style="fill:none;stroke:rgb(29,68,23);stroke-width:9.11px;"/>
                    </g>
                    <g transform="matrix(1.95683,0.0712391,-0.0457466,1.20154,639.263,281.309)">
                        <path d="M0,5.118C-2.168,1.143 2.005,-9.044 5.521,-10.904C9.038,-12.764 28.388,-1.236 29.439,2.635C31.434,10.958 25.043,16.034 21.529,16.958C18.017,17.882 2.168,9.093 0,5.118" style="fill:rgb(79,186,94);fill-rule:nonzero;"/>
                    </g>
                    <g transform="matrix(1.95683,0.0712391,-0.0457466,1.20154,589.126,259.907)">
                        <path d="M0,11.051C-2.243,9.263 -2.093,1.83 -0.394,-0.335C1.305,-2.5 13.076,-0.773 14.618,1.279C17.772,5.767 17.741,10.364 15.826,11.958C13.911,13.551 2.244,12.839 0,11.051" style="fill:rgb(79,186,94);fill-rule:nonzero;"/>
                    </g>
                </g>
                <g transform="matrix(5.74201,0,0,5.74201,-790.673,-142.426)">
                    <path d="M168.58,83.522L168.564,86.722C168.564,87.192 168.636,87.541 168.78,87.77C168.924,88 169.225,88.114 169.684,88.114L173.732,88.114C174.223,88.125 174.468,88.498 174.468,89.234C174.468,89.8 174.399,90.21 174.26,90.466C174.121,90.722 173.839,90.856 173.412,90.866C171.908,90.909 170.42,90.93 168.948,90.93C167.476,90.93 165.599,90.92 163.316,90.898C162.932,90.898 162.62,90.805 162.38,90.618C162.14,90.432 162.004,90.173 161.972,89.842C161.887,88.914 161.844,87.45 161.844,85.45C161.844,83.45 161.868,82.101 161.916,81.402C161.964,80.704 162.063,80.24 162.212,80.01C162.361,79.781 162.655,79.666 163.092,79.666L167.38,79.666C167.828,79.666 168.124,79.784 168.268,80.018C168.412,80.253 168.5,80.632 168.532,81.154C168.564,81.677 168.58,82.466 168.58,83.522Z" style="fill:rgb(29,68,23);fill-rule:nonzero;"/>
                    <path d="M180.34,86.866C180.34,88.061 180.655,88.658 181.284,88.658C181.913,88.658 182.228,88.061 182.228,86.866C182.228,86.322 182.164,85.904 182.036,85.61C181.908,85.317 181.657,85.17 181.284,85.17C180.911,85.17 180.66,85.317 180.532,85.61C180.404,85.904 180.34,86.322 180.34,86.866ZM187.252,86.866C187.252,89.768 185.263,91.218 181.284,91.218C177.305,91.218 175.316,89.768 175.316,86.866C175.316,85.49 175.823,84.424 176.836,83.666C177.849,82.909 179.332,82.53 181.284,82.53C183.236,82.53 184.719,82.909 185.732,83.666C186.745,84.424 187.252,85.49 187.252,86.866Z" style="fill:rgb(29,68,23);fill-rule:nonzero;"/>
                    <path d="M195.572,85.026C195.071,85.026 194.697,85.192 194.452,85.522C194.207,85.853 194.084,86.264 194.084,86.754C194.084,87.245 194.228,87.666 194.516,88.018C194.804,88.37 195.268,88.546 195.908,88.546C196.111,88.546 196.409,88.493 196.804,88.386C197.199,88.28 197.476,88.226 197.636,88.226C198.009,88.226 198.207,88.584 198.228,89.298C198.228,89.608 198.209,89.896 198.172,90.162C198.135,90.429 197.935,90.621 197.572,90.738C196.505,91.069 195.564,91.234 194.748,91.234C193.932,91.234 193.265,91.205 192.748,91.146C192.231,91.088 191.708,90.968 191.18,90.786C190.652,90.605 190.215,90.365 189.868,90.066C189.521,89.768 189.239,89.365 189.02,88.858C188.801,88.352 188.692,87.712 188.692,86.938C188.692,86.165 188.86,85.474 189.196,84.866C189.532,84.258 189.993,83.794 190.58,83.474C191.689,82.877 193.076,82.578 194.74,82.578C195.636,82.578 196.548,82.722 197.476,83.01C197.871,83.138 198.068,83.568 198.068,84.298C198.068,85.029 197.881,85.394 197.508,85.394C197.348,85.394 197.057,85.333 196.636,85.21C196.215,85.088 195.86,85.026 195.572,85.026Z" style="fill:rgb(29,68,23);fill-rule:nonzero;"/>
                    <path d="M205.3,82.466C208.777,82.466 210.532,83.597 210.564,85.858C210.585,86.818 210.596,87.698 210.596,88.498C210.596,89.298 210.591,89.837 210.58,90.114C210.569,90.392 210.497,90.592 210.364,90.714C210.231,90.837 209.972,90.898 209.588,90.898L206.196,90.898C205.855,90.898 205.62,90.837 205.492,90.714C205.364,90.592 205.295,90.408 205.284,90.162C205.284,90.152 205.281,90.133 205.276,90.106C205.271,90.08 205.268,90.056 205.268,90.034C204.564,90.76 203.604,91.122 202.388,91.122C201.545,91.122 200.828,90.912 200.236,90.49C199.644,90.069 199.348,89.488 199.348,88.746C199.348,88.005 199.559,87.413 199.98,86.97C200.401,86.528 200.903,86.226 201.484,86.066C202.065,85.906 202.689,85.826 203.356,85.826C204.023,85.826 204.676,85.89 205.316,86.018L205.316,85.954C205.316,85.421 205.212,85.037 205.004,84.802C204.796,84.568 204.46,84.45 203.996,84.45C203.532,84.45 203.145,84.49 202.836,84.57C202.527,84.65 202.292,84.733 202.132,84.818C201.695,85.074 201.391,85.202 201.22,85.202C201.049,85.202 200.897,85.122 200.764,84.962C200.631,84.802 200.564,84.554 200.564,84.218C200.564,83.882 200.625,83.65 200.748,83.522C200.871,83.394 201.065,83.266 201.332,83.138C202.26,82.69 203.583,82.466 205.3,82.466ZM204.548,89.01C205.017,89.01 205.257,88.92 205.268,88.738C205.289,88.386 205.3,87.922 205.3,87.346C205.3,87.122 205.129,87.01 204.788,87.01C204.447,87.01 204.169,87.093 203.956,87.258C203.743,87.424 203.636,87.666 203.636,87.986C203.636,88.306 203.724,88.557 203.9,88.738C204.076,88.92 204.292,89.01 204.548,89.01Z" style="fill:rgb(29,68,23);fill-rule:nonzero;"/>
                    <path d="M213.188,85.042C213.188,84.872 213.071,84.786 212.836,84.786C212.42,84.786 212.175,84.648 212.1,84.37C212.057,84.232 212.036,84.018 212.036,83.73C212.036,83.442 212.076,83.237 212.156,83.114C212.236,82.992 212.391,82.901 212.62,82.842C212.849,82.784 213.057,82.682 213.244,82.538C213.431,82.394 213.815,82.077 214.396,81.586C214.977,81.096 215.383,80.776 215.612,80.626C215.841,80.477 216.127,80.402 216.468,80.402L217.268,80.402C217.641,80.402 217.892,80.448 218.02,80.538C218.148,80.629 218.212,80.77 218.212,80.962L218.212,82.482C218.212,82.706 218.308,82.818 218.5,82.818L220.212,82.818C220.489,82.818 220.689,82.877 220.812,82.994C220.935,83.112 220.996,83.381 220.996,83.802C220.996,84.224 220.932,84.493 220.804,84.61C220.676,84.728 220.484,84.786 220.228,84.786L218.564,84.786C218.415,84.786 218.319,84.824 218.276,84.898C218.233,84.973 218.212,85.08 218.212,85.218L218.212,87.138C218.233,87.501 218.369,87.805 218.62,88.05C218.871,88.296 219.225,88.418 219.684,88.418C219.908,88.418 220.185,88.357 220.516,88.234C220.847,88.112 221.071,88.05 221.188,88.05C221.476,88.05 221.62,88.477 221.62,89.33C221.62,89.949 221.455,90.322 221.124,90.45C220.783,90.568 220.303,90.664 219.684,90.738C219.065,90.813 218.447,90.85 217.828,90.85C217.209,90.85 216.62,90.8 216.06,90.698C215.5,90.597 214.991,90.418 214.532,90.162C213.636,89.64 213.188,88.642 213.188,87.17L213.188,85.042Z" style="fill:rgb(29,68,23);fill-rule:nonzero;"/>
                    <path d="M224.116,82.77L227.236,82.77C227.599,82.77 227.841,82.85 227.964,83.01C228.087,83.17 228.167,83.525 228.204,84.074C228.241,84.624 228.26,85.626 228.26,87.082C228.26,88.538 228.228,89.565 228.164,90.162C228.132,90.344 228.041,90.504 227.892,90.642C227.743,90.781 227.479,90.864 227.1,90.89C226.721,90.917 226.271,90.93 225.748,90.93C225.225,90.93 224.751,90.917 224.324,90.89C223.897,90.864 223.609,90.781 223.46,90.642C223.311,90.504 223.225,90.344 223.204,90.162C223.129,89.469 223.092,88.405 223.092,86.97C223.092,85.536 223.113,84.557 223.156,84.034C223.199,83.512 223.279,83.17 223.396,83.01C223.513,82.85 223.753,82.77 224.116,82.77ZM225.844,78.994C226.548,78.994 227.079,79.136 227.436,79.418C227.793,79.701 227.972,80.088 227.972,80.578C227.972,81.73 227.204,82.306 225.668,82.306C225.049,82.306 224.521,82.173 224.084,81.906C223.647,81.64 223.428,81.24 223.428,80.706C223.428,79.565 224.233,78.994 225.844,78.994Z" style="fill:rgb(29,68,23);fill-rule:nonzero;"/>
                    <path d="M234.884,86.866C234.884,88.061 235.199,88.658 235.828,88.658C236.457,88.658 236.772,88.061 236.772,86.866C236.772,86.322 236.708,85.904 236.58,85.61C236.452,85.317 236.201,85.17 235.828,85.17C235.455,85.17 235.204,85.317 235.076,85.61C234.948,85.904 234.884,86.322 234.884,86.866ZM241.796,86.866C241.796,89.768 239.807,91.218 235.828,91.218C231.849,91.218 229.86,89.768 229.86,86.866C229.86,85.49 230.367,84.424 231.38,83.666C232.393,82.909 233.876,82.53 235.828,82.53C237.78,82.53 239.263,82.909 240.276,83.666C241.289,84.424 241.796,85.49 241.796,86.866Z" style="fill:rgb(29,68,23);fill-rule:nonzero;"/>
                    <path d="M250.34,90.178L250.356,86.274C250.356,85.954 250.276,85.714 250.116,85.554C249.956,85.394 249.756,85.314 249.516,85.314C249.276,85.314 249.057,85.397 248.86,85.562C248.663,85.728 248.564,85.96 248.564,86.258L248.564,87.234C248.564,88.642 248.532,89.602 248.468,90.114C248.436,90.296 248.345,90.456 248.196,90.594C248.047,90.733 247.783,90.816 247.404,90.842C247.025,90.869 246.649,90.882 246.276,90.882C245.903,90.882 245.268,90.861 244.372,90.818C244.116,90.808 243.913,90.733 243.764,90.594C243.615,90.456 243.529,90.296 243.508,90.114C243.433,89.421 243.396,88.36 243.396,86.93C243.396,85.501 243.417,84.522 243.46,83.994C243.503,83.466 243.583,83.122 243.7,82.962C243.817,82.802 244.057,82.722 244.42,82.722L247.54,82.722C247.903,82.722 248.145,82.802 248.268,82.962C248.391,83.122 248.468,83.394 248.5,83.778L248.5,83.794C249.321,82.941 250.321,82.514 251.5,82.514C252.679,82.514 253.604,82.802 254.276,83.378C254.948,83.954 255.292,84.749 255.308,85.762C255.324,86.776 255.332,87.682 255.332,88.482C255.332,89.282 255.327,89.821 255.316,90.098C255.305,90.376 255.233,90.576 255.1,90.698C254.967,90.821 254.708,90.882 254.324,90.882L251.252,90.914C250.911,90.914 250.673,90.853 250.54,90.73C250.407,90.608 250.34,90.424 250.34,90.178Z" style="fill:rgb(29,68,23);fill-rule:nonzero;"/>
                </g>
            </g>
        </g>
    </g>
</svg>
