<?xml version="1.0" encoding="UTF-8" standalone="no"?>
<!DOCTYPE svg PUBLIC "-//W3C//DTD SVG 1.1//EN" "http://www.w3.org/Graphics/SVG/1.1/DTD/svg11.dtd">
<svg width="100%" height="100%" viewBox="0 0 728 306" version="1.1" xmlns="http://www.w3.org/2000/svg" xmlns:xlink="http://www.w3.org/1999/xlink" xml:space="preserve" xmlns:serif="http://www.serif.com/" style="fill-rule:evenodd;clip-rule:evenodd;stroke-miterlimit:10;">
    <g id="Artboard1" transform="matrix(1.03263,0,0,1.05899,-41.7437,-222.191)">
        <rect x="40.425" y="209.814" width="704.881" height="288.186" style="fill:none;"/>
        <clipPath id="_clip1">
            <rect x="40.425" y="209.814" width="704.881" height="288.186"/>
        </clipPath>
        <g clip-path="url(#_clip1)">
            <g id="Video" transform="matrix(0.968401,0,0,0.944296,13.3094,22.8434)">
                <g>
                    <g transform="matrix(2.34204,0.0712391,-0.0547518,1.20154,143.52,260.206)">
                        <path d="M0,179.41C-34.47,159.472 -53.386,39.481 -30.706,10.48C-8.026,-18.522 205.003,-19.939 229.5,4.075C253.996,28.089 262.459,135.158 246.177,154.419C229.895,173.68 34.47,199.349 0,179.41" style="fill:rgb(34,107,44);fill-rule:nonzero;"/>
                    </g>
                    <g transform="matrix(2.34204,0.0712391,-0.0547518,1.20154,149.147,219.629)">
                        <path d="M0,179.41C-34.47,159.472 -53.386,39.481 -30.706,10.48C-8.026,-18.522 205.003,-19.939 229.499,4.075C253.996,28.089 262.459,135.158 246.177,154.419C229.895,173.68 34.47,199.349 0,179.41" style="fill:rgb(79,186,94);fill-rule:nonzero;"/>
                    </g>
                    <g transform="matrix(2.34204,0.0712391,-0.0547518,1.20154,156.004,241.783)">
                        <path d="M0,175.979C-34.85,158.846 -60.21,42.09 -33.877,15.64C-9.961,-17.133 202.035,-17.133 226.833,0.516C252.897,19.066 262.184,125.623 245.667,142.29C229.152,158.957 34.85,193.112 0,175.979" style="fill:rgb(46,153,64);fill-rule:nonzero;"/>
                    </g>
                    <g transform="matrix(1.50877,0.947976,1.79213,-0.741699,35.4764,333.751)">
                        <path d="M115.382,-44.197C74.296,-54.985 -45.074,24.26 -55.439,64.251C-65.805,104.244 77.444,268.255 115.382,268.233C153.321,268.212 254.129,191.067 260.184,163.574C266.241,136.08 156.468,-33.409 115.382,-44.197Z" style="fill:none;stroke:rgb(29,68,23);stroke-width:9.11px;"/>
                    </g>
                    <g transform="matrix(1.95683,0.0712391,-0.0457466,1.20154,639.263,281.309)">
                        <path d="M0,5.118C-2.168,1.143 2.005,-9.044 5.521,-10.904C9.038,-12.764 28.388,-1.236 29.439,2.635C31.434,10.958 25.043,16.034 21.529,16.958C18.017,17.882 2.168,9.093 0,5.118" style="fill:rgb(79,186,94);fill-rule:nonzero;"/>
                    </g>
                    <g transform="matrix(1.95683,0.0712391,-0.0457466,1.20154,589.126,259.907)">
                        <path d="M0,11.051C-2.243,9.263 -2.093,1.83 -0.394,-0.335C1.305,-2.5 13.076,-0.773 14.618,1.279C17.772,5.767 17.741,10.364 15.826,11.958C13.911,13.551 2.244,12.839 0,11.051" style="fill:rgb(79,186,94);fill-rule:nonzero;"/>
                    </g>
                </g>
                <g transform="matrix(7.15739,0,0,7.15739,-969.903,-265.428)">
                    <path d="M171.188,90.034C170.996,90.397 170.663,90.68 170.188,90.882C169.713,91.085 169.199,91.186 168.644,91.186C168.089,91.186 167.583,91.09 167.124,90.898C166.665,90.706 166.335,90.429 166.132,90.066C164.532,87.112 163.044,84.21 161.668,81.362C161.508,81.021 161.428,80.76 161.428,80.578C161.428,80.002 161.689,79.714 162.212,79.714L166.836,79.682C167.231,79.682 167.532,79.752 167.74,79.89C167.948,80.029 168.132,80.306 168.292,80.722L169.844,84.69C169.908,84.861 170.025,84.946 170.196,84.946C170.367,84.946 170.495,84.861 170.58,84.69L172.676,80.146C172.815,79.858 172.964,79.698 173.124,79.666C173.188,79.656 173.3,79.65 173.46,79.65L175.3,79.682C175.503,79.682 175.647,79.778 175.732,79.97C175.764,80.045 175.78,80.136 175.78,80.242C175.78,80.349 175.66,80.642 175.42,81.122C175.18,81.602 174.556,82.936 173.548,85.122C172.54,87.309 171.753,88.946 171.188,90.034Z" style="fill:rgb(29,68,23);fill-rule:nonzero;"/>
                    <path d="M178.34,82.77L181.46,82.77C181.823,82.77 182.065,82.85 182.188,83.01C182.311,83.17 182.391,83.525 182.428,84.074C182.465,84.624 182.484,85.626 182.484,87.082C182.484,88.538 182.452,89.565 182.388,90.162C182.356,90.344 182.265,90.504 182.116,90.642C181.967,90.781 181.703,90.864 181.324,90.89C180.945,90.917 180.495,90.93 179.972,90.93C179.449,90.93 178.975,90.917 178.548,90.89C178.121,90.864 177.833,90.781 177.684,90.642C177.535,90.504 177.449,90.344 177.428,90.162C177.353,89.469 177.316,88.405 177.316,86.97C177.316,85.536 177.337,84.557 177.38,84.034C177.423,83.512 177.503,83.17 177.62,83.01C177.737,82.85 177.977,82.77 178.34,82.77ZM180.068,78.994C180.772,78.994 181.303,79.136 181.66,79.418C182.017,79.701 182.196,80.088 182.196,80.578C182.196,81.73 181.428,82.306 179.892,82.306C179.273,82.306 178.745,82.173 178.308,81.906C177.871,81.64 177.652,81.24 177.652,80.706C177.652,79.565 178.457,78.994 180.068,78.994Z" style="fill:rgb(29,68,23);fill-rule:nonzero;"/>
                    <path d="M189.652,85.17C189.023,85.17 188.708,85.69 188.708,86.73C188.708,87.77 189.023,88.29 189.652,88.29C189.897,88.29 190.119,88.208 190.316,88.042C190.513,87.877 190.612,87.645 190.612,87.346L190.612,86.114C190.612,85.816 190.513,85.584 190.316,85.418C190.119,85.253 189.897,85.17 189.652,85.17ZM194.932,90.834L193.236,90.866C192.617,90.866 192.201,90.856 191.988,90.834C191.327,90.792 190.996,90.418 190.996,89.714C190.601,90.162 190.092,90.525 189.468,90.802C188.844,91.08 188.271,91.218 187.748,91.218C186.681,91.218 185.804,90.866 185.116,90.162C184.428,89.458 184.084,88.37 184.084,86.898C184.084,85.064 184.708,83.784 185.956,83.058C186.617,82.664 187.391,82.466 188.276,82.466C189.161,82.466 189.913,82.664 190.532,83.058C190.735,83.197 190.847,83.152 190.868,82.922C190.889,82.693 190.9,82.354 190.9,81.906L190.9,80.578C190.9,80.365 190.905,80.149 190.916,79.93C190.927,79.712 190.991,79.53 191.108,79.386C191.225,79.242 191.465,79.17 191.828,79.17L194.9,79.17C195.252,79.17 195.489,79.256 195.612,79.426C195.735,79.597 195.801,79.858 195.812,80.21C195.844,81.725 195.86,83.272 195.86,84.85C195.86,84.85 195.849,86.594 195.828,90.082C195.828,90.296 195.729,90.474 195.532,90.618C195.335,90.762 195.135,90.834 194.932,90.834Z" style="fill:rgb(29,68,23);fill-rule:nonzero;"/>
                    <path d="M199.828,83.21C200.319,82.97 200.823,82.797 201.34,82.69C201.857,82.584 202.497,82.53 203.26,82.53C204.023,82.53 204.751,82.624 205.444,82.81C206.137,82.997 206.655,83.25 206.996,83.57C207.593,84.157 207.892,84.845 207.892,85.634C207.892,86.872 206.847,87.49 204.756,87.49C204.02,87.49 203.257,87.421 202.468,87.282C202.5,87.986 202.631,88.482 202.86,88.77C203.089,89.058 203.497,89.202 204.084,89.202C204.671,89.202 205.156,89.138 205.54,89.01C205.924,88.882 206.233,88.752 206.468,88.618C206.703,88.485 206.903,88.418 207.068,88.418C207.233,88.418 207.375,88.493 207.492,88.642C207.673,88.834 207.764,89.098 207.764,89.434C207.764,89.77 207.697,90 207.564,90.122C207.431,90.245 207.22,90.365 206.932,90.482C205.919,90.909 204.479,91.122 202.612,91.122C201.065,91.122 199.793,90.752 198.796,90.01C197.799,89.269 197.3,88.269 197.3,87.01C197.3,86.402 197.412,85.845 197.636,85.338C197.86,84.832 198.159,84.41 198.532,84.074C198.905,83.738 199.337,83.45 199.828,83.21ZM203.54,84.354C202.889,84.354 202.537,84.882 202.484,85.938C202.996,85.981 203.263,86.002 203.284,86.002C203.988,86.002 204.34,85.768 204.34,85.298C204.34,84.669 204.073,84.354 203.54,84.354Z" style="fill:rgb(29,68,23);fill-rule:nonzero;"/>
                    <path d="M214.196,86.866C214.196,88.061 214.511,88.658 215.14,88.658C215.769,88.658 216.084,88.061 216.084,86.866C216.084,86.322 216.02,85.904 215.892,85.61C215.764,85.317 215.513,85.17 215.14,85.17C214.767,85.17 214.516,85.317 214.388,85.61C214.26,85.904 214.196,86.322 214.196,86.866ZM221.108,86.866C221.108,89.768 219.119,91.218 215.14,91.218C211.161,91.218 209.172,89.768 209.172,86.866C209.172,85.49 209.679,84.424 210.692,83.666C211.705,82.909 213.188,82.53 215.14,82.53C217.092,82.53 218.575,82.909 219.588,83.666C220.601,84.424 221.108,85.49 221.108,86.866Z" style="fill:rgb(29,68,23);fill-rule:nonzero;"/>
                </g>
            </g>
        </g>
    </g>
</svg>
